<mxfile host="drawio-plugin" modified="2022-08-28T00:32:44.365Z" agent="5.0 (Windows NT 6.2; Win64; x64) AppleWebKit/537.36 (KHTML, like Gecko) Chrome/98.0.4758.102 Safari/537.36" etag="wremtOiXqJRfuKHttnE_" version="15.5.4" type="embed" pages="3"><diagram id="XZTmqhsSidT4fcL47a7t" name="Overall Flow"><mxGraphModel dx="1205" dy="833" grid="1" gridSize="10" guides="1" tooltips="1" connect="1" arrows="1" fold="1" page="1" pageScale="1" pageWidth="1100" pageHeight="850" math="0" shadow="0"><root><mxCell id="0"/><mxCell id="1" parent="0"/><mxCell id="sjS-n9B35-yxYgUOXuyF-13" value="input jfeature file" style="edgeStyle=elbowEdgeStyle;html=1;elbow=horizontal;startArrow=open;rounded=0;endArrow=none;verticalAlign=bottom;startSize=12;fontSize=14;" parent="1" source="7HDm_3yFGlajeXFn7TkZ-11" edge="1"><mxGeometry x="0.1111" y="-10" relative="1" as="geometry"><mxPoint x="20" y="170" as="targetPoint"/><mxPoint x="190" y="290" as="sourcePoint"/><mxPoint as="offset"/></mxGeometry></mxCell><mxCell id="sjS-n9B35-yxYgUOXuyF-14" value="a JFeatureDetail" style="edgeStyle=elbowEdgeStyle;html=1;elbow=vertical;endArrow=open;rounded=0;verticalAlign=bottom;endSize=12;fontSize=14;" parent="1" source="7HDm_3yFGlajeXFn7TkZ-11" target="7HDm_3yFGlajeXFn7TkZ-9" edge="1"><mxGeometry x="0.1905" y="5" relative="1" as="geometry"><mxPoint x="575" y="350" as="targetPoint"/><mxPoint x="380" y="290" as="sourcePoint"/><mxPoint as="offset"/></mxGeometry></mxCell><mxCell id="7HDm_3yFGlajeXFn7TkZ-2" value="input classes/instances" style="edgeStyle=elbowEdgeStyle;html=1;elbow=horizontal;startArrow=open;rounded=0;endArrow=none;verticalAlign=bottom;startSize=12;fontSize=14;" parent="1" source="7HDm_3yFGlajeXFn7TkZ-10" edge="1"><mxGeometry x="0.2" y="-15" relative="1" as="geometry"><mxPoint x="40" y="555" as="targetPoint"/><mxPoint as="offset"/><mxPoint x="240" y="500" as="sourcePoint"/></mxGeometry></mxCell><mxCell id="7HDm_3yFGlajeXFn7TkZ-3" value="a JStepDefDetail" style="edgeStyle=elbowEdgeStyle;html=1;elbow=vertical;endArrow=open;rounded=0;verticalAlign=bottom;endSize=12;fontSize=14;" parent="1" source="7HDm_3yFGlajeXFn7TkZ-10" target="7HDm_3yFGlajeXFn7TkZ-9" edge="1"><mxGeometry x="0.25" y="-25" relative="1" as="geometry"><mxPoint x="575" y="450" as="targetPoint"/><mxPoint x="430" y="500" as="sourcePoint"/><mxPoint as="offset"/></mxGeometry></mxCell><mxCell id="7HDm_3yFGlajeXFn7TkZ-7" value="final output" style="edgeStyle=elbowEdgeStyle;html=1;elbow=vertical;endArrow=open;rounded=0;verticalAlign=bottom;endSize=12;fontSize=14;exitX=1;exitY=0.5;exitDx=0;exitDy=0;" parent="1" source="7HDm_3yFGlajeXFn7TkZ-9" target="7HDm_3yFGlajeXFn7TkZ-8" edge="1"><mxGeometry relative="1" as="geometry"><mxPoint x="870" y="405" as="targetPoint"/><mxPoint x="740" y="400" as="sourcePoint"/></mxGeometry></mxCell><mxCell id="7HDm_3yFGlajeXFn7TkZ-8" value="User execute the JFeature which contains several JScenario and JScenarioOutline" style="shape=rect;html=1;rounded=1;whiteSpace=wrap;align=center;fontSize=14;" parent="1" vertex="1"><mxGeometry x="870" y="330" width="190" height="80" as="geometry"/></mxCell><mxCell id="7HDm_3yFGlajeXFn7TkZ-9" value="With&amp;nbsp;&lt;span&gt;a JFeatureDetail&amp;nbsp;&lt;/span&gt;and a JStepDefDetail, create the executable JFeature. This involves finding the matching method for the step, extracting parameters from the step literals and etc." style="shape=rect;html=1;rounded=1;whiteSpace=wrap;align=center;fontSize=14;" parent="1" vertex="1"><mxGeometry x="450" y="300" width="270" height="140" as="geometry"/></mxCell><mxCell id="7HDm_3yFGlajeXFn7TkZ-10" value="collect methods tagged by @JStep and related information from step definition classes/instances.&lt;br&gt;Also collect source classes/instances of step definition" style="shape=rect;html=1;rounded=1;whiteSpace=wrap;align=center;fontSize=14;" parent="1" vertex="1"><mxGeometry x="190" y="510" width="230" height="90" as="geometry"/></mxCell><mxCell id="7HDm_3yFGlajeXFn7TkZ-11" value="parse jfeature file and save these steps related information in couple well structured ...Details objs" style="shape=rect;html=1;rounded=1;whiteSpace=wrap;align=center;fontSize=14;" parent="1" vertex="1"><mxGeometry x="190" y="130" width="230" height="80" as="geometry"/></mxCell><mxCell id="JIP0lpjrAdv9Ra7_uTt8-2" value="" style="endArrow=none;dashed=1;html=1;rounded=0;fontSize=14;" parent="1" edge="1"><mxGeometry width="50" height="50" relative="1" as="geometry"><mxPoint x="790" y="700" as="sourcePoint"/><mxPoint x="790" y="20" as="targetPoint"/></mxGeometry></mxCell><mxCell id="JIP0lpjrAdv9Ra7_uTt8-3" value="Buildtime logic (EasyCucumber.build())" style="text;html=1;align=center;verticalAlign=middle;resizable=0;points=[];autosize=1;strokeColor=none;fillColor=none;fontSize=14;" parent="1" vertex="1"><mxGeometry x="305" y="20" width="260" height="20" as="geometry"/></mxCell><mxCell id="JIP0lpjrAdv9Ra7_uTt8-4" value="Runtime logic (JFeature.executeXXX())" style="text;html=1;align=center;verticalAlign=middle;resizable=0;points=[];autosize=1;strokeColor=none;fillColor=none;fontSize=14;" parent="1" vertex="1"><mxGeometry x="880" y="20" width="260" height="20" as="geometry"/></mxCell><mxCell id="M1UPOMJ5BZzUDJZbZPFO-1" value="(the parsing logic more or less is similar to Alexi's code, &lt;br&gt;but instead store them in data classes instances, see page 2 the UML class diagram)" style="text;html=1;align=center;verticalAlign=middle;resizable=0;points=[];autosize=1;strokeColor=none;fillColor=none;fontSize=14;" parent="1" vertex="1"><mxGeometry x="70" y="80" width="540" height="40" as="geometry"/></mxCell><mxCell id="M1UPOMJ5BZzUDJZbZPFO-2" value="(the parsing logic more or less is similar to Alexi's code, &lt;br&gt;but instead store them in data classes instances, see page 2 the UML class diagram)" style="text;html=1;align=center;verticalAlign=middle;resizable=0;points=[];autosize=1;strokeColor=none;fillColor=none;fontSize=14;" parent="1" vertex="1"><mxGeometry x="50" y="600" width="540" height="40" as="geometry"/></mxCell></root></mxGraphModel></diagram><diagram name="UML Class Diagram" id="929967ad-93f9-6ef4-fab6-5d389245f69c"><mxGraphModel dx="1205" dy="833" grid="1" gridSize="10" guides="1" tooltips="1" connect="1" arrows="1" fold="1" page="1" pageScale="1.5" pageWidth="1169" pageHeight="826" background="none" math="0" shadow="0"><root><mxCell id="0" style=";html=1;"/><mxCell id="1" style=";html=1;" parent="0"/><mxCell id="siLybOBEUU1NM1Dc4eDs-5" value="" style="html=1;dropTarget=0;fontSize=14;fillColor=none;" parent="1" vertex="1"><mxGeometry x="20" y="1090" width="1350" height="940" as="geometry"/></mxCell><mxCell id="siLybOBEUU1NM1Dc4eDs-6" value="" style="shape=module;jettyWidth=8;jettyHeight=4;fontSize=14;" parent="siLybOBEUU1NM1Dc4eDs-5" vertex="1"><mxGeometry x="1" width="20" height="20" relative="1" as="geometry"><mxPoint x="-27" y="7" as="offset"/></mxGeometry></mxCell><mxCell id="_W_DsquaBqsfkgBV494g-3" value="" style="html=1;dropTarget=0;fontSize=14;fillColor=none;" parent="1" vertex="1"><mxGeometry x="1430" y="690" width="990" height="570" as="geometry"/></mxCell><mxCell id="_W_DsquaBqsfkgBV494g-4" value="" style="shape=module;jettyWidth=8;jettyHeight=4;fontSize=14;" parent="_W_DsquaBqsfkgBV494g-3" vertex="1"><mxGeometry x="1" width="20" height="20" relative="1" as="geometry"><mxPoint x="-27" y="7" as="offset"/></mxGeometry></mxCell><mxCell id="siLybOBEUU1NM1Dc4eDs-2" value="" style="html=1;dropTarget=0;fontSize=14;fillColor=none;" parent="1" vertex="1"><mxGeometry x="20" y="41" width="1350" height="939" as="geometry"/></mxCell><mxCell id="siLybOBEUU1NM1Dc4eDs-3" value="" style="shape=module;jettyWidth=8;jettyHeight=4;fontSize=14;" parent="siLybOBEUU1NM1Dc4eDs-2" vertex="1"><mxGeometry x="1" width="20" height="20" relative="1" as="geometry"><mxPoint x="-27" y="7" as="offset"/></mxGeometry></mxCell><mxCell id="sR5fuztAtTY3QZYFWuLl-10" style="edgeStyle=orthogonalEdgeStyle;rounded=0;orthogonalLoop=1;jettySize=auto;html=1;fontSize=14;" parent="1" source="sR5fuztAtTY3QZYFWuLl-6" target="sR5fuztAtTY3QZYFWuLl-12" edge="1"><mxGeometry relative="1" as="geometry"><mxPoint x="450" y="146" as="targetPoint"/></mxGeometry></mxCell><mxCell id="sR5fuztAtTY3QZYFWuLl-11" value="1..*" style="edgeLabel;html=1;align=center;verticalAlign=middle;resizable=0;points=[];fontSize=14;" parent="sR5fuztAtTY3QZYFWuLl-10" connectable="0" vertex="1"><mxGeometry x="0.6538" y="1" relative="1" as="geometry"><mxPoint x="-41" y="-10" as="offset"/></mxGeometry></mxCell><mxCell id="sR5fuztAtTY3QZYFWuLl-28" style="edgeStyle=orthogonalEdgeStyle;rounded=0;orthogonalLoop=1;jettySize=auto;html=1;fontSize=14;" parent="1" source="sR5fuztAtTY3QZYFWuLl-6" target="sR5fuztAtTY3QZYFWuLl-22" edge="1"><mxGeometry relative="1" as="geometry"/></mxCell><mxCell id="sR5fuztAtTY3QZYFWuLl-29" value="1..*" style="edgeLabel;html=1;align=center;verticalAlign=middle;resizable=0;points=[];fontSize=14;" parent="sR5fuztAtTY3QZYFWuLl-28" connectable="0" vertex="1"><mxGeometry x="0.3387" y="-2" relative="1" as="geometry"><mxPoint x="7" y="29" as="offset"/></mxGeometry></mxCell><mxCell id="sR5fuztAtTY3QZYFWuLl-6" value="JFeatureDetail" style="swimlane;fontStyle=0;childLayout=stackLayout;horizontal=1;startSize=26;fillColor=none;horizontalStack=0;resizeParent=1;resizeParentMax=0;resizeLast=0;collapsible=1;marginBottom=0;fontSize=14;" parent="1" vertex="1"><mxGeometry x="90" y="70" width="280" height="170" as="geometry"/></mxCell><mxCell id="sR5fuztAtTY3QZYFWuLl-16" value="+ title: String" style="text;strokeColor=none;fillColor=none;align=left;verticalAlign=top;spacingLeft=4;spacingRight=4;overflow=hidden;rotatable=0;points=[[0,0.5],[1,0.5]];portConstraint=eastwest;fontSize=14;" parent="sR5fuztAtTY3QZYFWuLl-6" vertex="1"><mxGeometry y="26" width="280" height="26" as="geometry"/></mxCell><mxCell id="sR5fuztAtTY3QZYFWuLl-17" value="+ tags: List&lt;String&gt;" style="text;strokeColor=none;fillColor=none;align=left;verticalAlign=top;spacingLeft=4;spacingRight=4;overflow=hidden;rotatable=0;points=[[0,0.5],[1,0.5]];portConstraint=eastwest;fontSize=14;" parent="sR5fuztAtTY3QZYFWuLl-6" vertex="1"><mxGeometry y="52" width="280" height="26" as="geometry"/></mxCell><mxCell id="-OqTSoezhylnxOobH5Nx-2" value="+ scenarioOrders: List&lt;Int&gt;" style="text;strokeColor=none;fillColor=none;align=left;verticalAlign=top;spacingLeft=4;spacingRight=4;overflow=hidden;rotatable=0;points=[[0,0.5],[1,0.5]];portConstraint=eastwest;fontSize=14;" parent="sR5fuztAtTY3QZYFWuLl-6" vertex="1"><mxGeometry y="78" width="280" height="26" as="geometry"/></mxCell><mxCell id="-OqTSoezhylnxOobH5Nx-1" value="+ scenarioOutlineOrders: List&lt;Int&gt;&#10;(these two order lists help remember &#10;which scenario or outline goes first)" style="text;strokeColor=none;fillColor=none;align=left;verticalAlign=top;spacingLeft=4;spacingRight=4;overflow=hidden;rotatable=0;points=[[0,0.5],[1,0.5]];portConstraint=eastwest;fontSize=14;" parent="sR5fuztAtTY3QZYFWuLl-6" vertex="1"><mxGeometry y="104" width="280" height="66" as="geometry"/></mxCell><mxCell id="vcQmQjNFYbKj1KRwqDo2-39" style="edgeStyle=orthogonalEdgeStyle;rounded=0;orthogonalLoop=1;jettySize=auto;html=1;fontSize=14;startArrow=none;startFill=0;endArrow=classic;endFill=1;" parent="1" source="sR5fuztAtTY3QZYFWuLl-12" target="vcQmQjNFYbKj1KRwqDo2-21" edge="1"><mxGeometry relative="1" as="geometry"/></mxCell><mxCell id="vcQmQjNFYbKj1KRwqDo2-40" value="1..*" style="edgeLabel;html=1;align=center;verticalAlign=middle;resizable=0;points=[];fontSize=14;" parent="vcQmQjNFYbKj1KRwqDo2-39" connectable="0" vertex="1"><mxGeometry x="0.2838" y="1" relative="1" as="geometry"><mxPoint x="-4" y="-16" as="offset"/></mxGeometry></mxCell><mxCell id="sR5fuztAtTY3QZYFWuLl-12" value="JScenarioDetail" style="swimlane;fontStyle=0;childLayout=stackLayout;horizontal=1;startSize=26;fillColor=none;horizontalStack=0;resizeParent=1;resizeParentMax=0;resizeLast=0;collapsible=1;marginBottom=0;fontSize=14;" parent="1" vertex="1"><mxGeometry x="490" y="91" width="230" height="78" as="geometry"/></mxCell><mxCell id="sR5fuztAtTY3QZYFWuLl-13" value="+ title: String" style="text;strokeColor=none;fillColor=none;align=left;verticalAlign=top;spacingLeft=4;spacingRight=4;overflow=hidden;rotatable=0;points=[[0,0.5],[1,0.5]];portConstraint=eastwest;fontSize=14;" parent="sR5fuztAtTY3QZYFWuLl-12" vertex="1"><mxGeometry y="26" width="230" height="26" as="geometry"/></mxCell><mxCell id="ivuC6BEx9TsKBJKYuj1_-1" value="+ tags: List&lt;String&gt;" style="text;strokeColor=none;fillColor=none;align=left;verticalAlign=top;spacingLeft=4;spacingRight=4;overflow=hidden;rotatable=0;points=[[0,0.5],[1,0.5]];portConstraint=eastwest;fontSize=14;" parent="sR5fuztAtTY3QZYFWuLl-12" vertex="1"><mxGeometry y="52" width="230" height="26" as="geometry"/></mxCell><mxCell id="sR5fuztAtTY3QZYFWuLl-18" value="JExamples&lt;br&gt;(May not needed)&lt;br style=&quot;font-size: 14px;&quot;&gt;(simply a 2D table with titles&lt;br style=&quot;font-size: 14px;&quot;&gt;and some convience functions)" style="html=1;fontSize=14;" parent="1" vertex="1"><mxGeometry x="1060" y="100" width="200" height="80" as="geometry"/></mxCell><mxCell id="sR5fuztAtTY3QZYFWuLl-22" value="JScenarioOutlineDetail" style="swimlane;fontStyle=0;childLayout=stackLayout;horizontal=1;startSize=26;fillColor=none;horizontalStack=0;resizeParent=1;resizeParentMax=0;resizeLast=0;collapsible=1;marginBottom=0;fontSize=14;" parent="1" vertex="1"><mxGeometry x="240" y="340" width="300" height="78" as="geometry"><mxRectangle x="240" y="300" width="170" height="26" as="alternateBounds"/></mxGeometry></mxCell><mxCell id="sR5fuztAtTY3QZYFWuLl-27" value="+ title: String" style="text;strokeColor=none;fillColor=none;align=left;verticalAlign=top;spacingLeft=4;spacingRight=4;overflow=hidden;rotatable=0;points=[[0,0.5],[1,0.5]];portConstraint=eastwest;fontSize=14;" parent="sR5fuztAtTY3QZYFWuLl-22" vertex="1"><mxGeometry y="26" width="300" height="26" as="geometry"/></mxCell><mxCell id="ivuC6BEx9TsKBJKYuj1_-5" value="+ tags: List&lt;String&gt;" style="text;strokeColor=none;fillColor=none;align=left;verticalAlign=top;spacingLeft=4;spacingRight=4;overflow=hidden;rotatable=0;points=[[0,0.5],[1,0.5]];portConstraint=eastwest;fontSize=14;" parent="sR5fuztAtTY3QZYFWuLl-22" vertex="1"><mxGeometry y="52" width="300" height="26" as="geometry"/></mxCell><mxCell id="sR5fuztAtTY3QZYFWuLl-30" style="edgeStyle=orthogonalEdgeStyle;rounded=0;orthogonalLoop=1;jettySize=auto;html=1;fontSize=14;" parent="1" source="sR5fuztAtTY3QZYFWuLl-27" target="sR5fuztAtTY3QZYFWuLl-12" edge="1"><mxGeometry relative="1" as="geometry"/></mxCell><mxCell id="sR5fuztAtTY3QZYFWuLl-31" value="1..*" style="edgeLabel;html=1;align=center;verticalAlign=middle;resizable=0;points=[];fontSize=14;" parent="sR5fuztAtTY3QZYFWuLl-30" connectable="0" vertex="1"><mxGeometry x="0.6221" y="-1" relative="1" as="geometry"><mxPoint x="14" y="-5" as="offset"/></mxGeometry></mxCell><mxCell id="vcQmQjNFYbKj1KRwqDo2-41" style="edgeStyle=orthogonalEdgeStyle;rounded=0;orthogonalLoop=1;jettySize=auto;html=1;fontSize=14;startArrow=none;startFill=0;endArrow=classic;endFill=1;" parent="1" source="TBeYfV_hiMUtZMuU-4zD-1" target="fe9_nct0JMd9n4NnYjBM-1" edge="1"><mxGeometry relative="1" as="geometry"><mxPoint x="627" y="710" as="targetPoint"/></mxGeometry></mxCell><mxCell id="vcQmQjNFYbKj1KRwqDo2-42" value="1..1" style="edgeLabel;html=1;align=center;verticalAlign=middle;resizable=0;points=[];fontSize=14;" parent="vcQmQjNFYbKj1KRwqDo2-41" connectable="0" vertex="1"><mxGeometry x="0.2744" y="1" relative="1" as="geometry"><mxPoint x="36" y="-12" as="offset"/></mxGeometry></mxCell><mxCell id="TBeYfV_hiMUtZMuU-4zD-1" value="JStepDefMethodDetail" style="swimlane;fontStyle=0;childLayout=stackLayout;horizontal=1;startSize=26;fillColor=none;horizontalStack=0;resizeParent=1;resizeParentMax=0;resizeLast=0;collapsible=1;marginBottom=0;fontSize=14;" parent="1" vertex="1"><mxGeometry x="60" y="640" width="300" height="70" as="geometry"><mxRectangle x="90" y="530" width="170" height="26" as="alternateBounds"/></mxGeometry></mxCell><mxCell id="TBeYfV_hiMUtZMuU-4zD-2" value="+ method: Method  &#10;(the actual Method class from Java reflection)" style="text;strokeColor=none;fillColor=none;align=left;verticalAlign=top;spacingLeft=4;spacingRight=4;overflow=hidden;rotatable=0;points=[[0,0.5],[1,0.5]];portConstraint=eastwest;fontSize=14;" parent="TBeYfV_hiMUtZMuU-4zD-1" vertex="1"><mxGeometry y="26" width="300" height="44" as="geometry"/></mxCell><mxCell id="TBeYfV_hiMUtZMuU-4zD-9" value="@JStep" style="swimlane;fontStyle=0;childLayout=stackLayout;horizontal=1;startSize=26;fillColor=none;horizontalStack=0;resizeParent=1;resizeParentMax=0;resizeLast=0;collapsible=1;marginBottom=0;fontSize=14;" parent="1" vertex="1"><mxGeometry x="820" y="410" width="200" height="78" as="geometry"><mxRectangle x="850" y="560" width="80" height="26" as="alternateBounds"/></mxGeometry></mxCell><mxCell id="TBeYfV_hiMUtZMuU-4zD-10" value="+ keyword: JStepKeyword" style="text;strokeColor=none;fillColor=none;align=left;verticalAlign=top;spacingLeft=4;spacingRight=4;overflow=hidden;rotatable=0;points=[[0,0.5],[1,0.5]];portConstraint=eastwest;fontSize=14;" parent="TBeYfV_hiMUtZMuU-4zD-9" vertex="1"><mxGeometry y="26" width="200" height="26" as="geometry"/></mxCell><mxCell id="TBeYfV_hiMUtZMuU-4zD-11" value="+ value: String" style="text;strokeColor=none;fillColor=none;align=left;verticalAlign=top;spacingLeft=4;spacingRight=4;overflow=hidden;rotatable=0;points=[[0,0.5],[1,0.5]];portConstraint=eastwest;fontSize=14;" parent="TBeYfV_hiMUtZMuU-4zD-9" vertex="1"><mxGeometry y="52" width="200" height="26" as="geometry"/></mxCell><mxCell id="TBeYfV_hiMUtZMuU-4zD-13" value="enum JStepKeyword" style="swimlane;fontStyle=0;childLayout=stackLayout;horizontal=1;startSize=26;fillColor=none;horizontalStack=0;resizeParent=1;resizeParentMax=0;resizeLast=0;collapsible=1;marginBottom=0;fontSize=14;" parent="1" vertex="1"><mxGeometry x="1130" y="410" width="190" height="156" as="geometry"/></mxCell><mxCell id="TBeYfV_hiMUtZMuU-4zD-14" value="Given" style="text;strokeColor=none;fillColor=none;align=left;verticalAlign=top;spacingLeft=4;spacingRight=4;overflow=hidden;rotatable=0;points=[[0,0.5],[1,0.5]];portConstraint=eastwest;fontSize=14;" parent="TBeYfV_hiMUtZMuU-4zD-13" vertex="1"><mxGeometry y="26" width="190" height="26" as="geometry"/></mxCell><mxCell id="TBeYfV_hiMUtZMuU-4zD-15" value="When" style="text;strokeColor=none;fillColor=none;align=left;verticalAlign=top;spacingLeft=4;spacingRight=4;overflow=hidden;rotatable=0;points=[[0,0.5],[1,0.5]];portConstraint=eastwest;fontSize=14;" parent="TBeYfV_hiMUtZMuU-4zD-13" vertex="1"><mxGeometry y="52" width="190" height="26" as="geometry"/></mxCell><mxCell id="TBeYfV_hiMUtZMuU-4zD-16" value="Then" style="text;strokeColor=none;fillColor=none;align=left;verticalAlign=top;spacingLeft=4;spacingRight=4;overflow=hidden;rotatable=0;points=[[0,0.5],[1,0.5]];portConstraint=eastwest;fontSize=14;" parent="TBeYfV_hiMUtZMuU-4zD-13" vertex="1"><mxGeometry y="78" width="190" height="26" as="geometry"/></mxCell><mxCell id="TBeYfV_hiMUtZMuU-4zD-18" value="And" style="text;strokeColor=none;fillColor=none;align=left;verticalAlign=top;spacingLeft=4;spacingRight=4;overflow=hidden;rotatable=0;points=[[0,0.5],[1,0.5]];portConstraint=eastwest;fontSize=14;" parent="TBeYfV_hiMUtZMuU-4zD-13" vertex="1"><mxGeometry y="104" width="190" height="26" as="geometry"/></mxCell><mxCell id="TBeYfV_hiMUtZMuU-4zD-17" value="But" style="text;strokeColor=none;fillColor=none;align=left;verticalAlign=top;spacingLeft=4;spacingRight=4;overflow=hidden;rotatable=0;points=[[0,0.5],[1,0.5]];portConstraint=eastwest;fontSize=14;" parent="TBeYfV_hiMUtZMuU-4zD-13" vertex="1"><mxGeometry y="130" width="190" height="26" as="geometry"/></mxCell><mxCell id="vcQmQjNFYbKj1KRwqDo2-9" value="MethodExecution" style="swimlane;fontStyle=1;align=center;verticalAlign=top;childLayout=stackLayout;horizontal=1;startSize=26;horizontalStack=0;resizeParent=1;resizeParentMax=0;resizeLast=0;collapsible=1;marginBottom=0;fontSize=14;" parent="1" vertex="1"><mxGeometry x="1015" y="1455" width="310" height="154" as="geometry"/></mxCell><mxCell id="vcQmQjNFYbKj1KRwqDo2-13" value="+ method: Method  &#10;(the actual Method class from Java reflection)" style="text;strokeColor=none;fillColor=none;align=left;verticalAlign=top;spacingLeft=4;spacingRight=4;overflow=hidden;rotatable=0;points=[[0,0.5],[1,0.5]];portConstraint=eastwest;fontSize=14;" parent="vcQmQjNFYbKj1KRwqDo2-9" vertex="1"><mxGeometry y="26" width="310" height="44" as="geometry"/></mxCell><mxCell id="vcQmQjNFYbKj1KRwqDo2-14" value="+ instance: Object" style="text;strokeColor=none;fillColor=none;align=left;verticalAlign=top;spacingLeft=4;spacingRight=4;overflow=hidden;rotatable=0;points=[[0,0.5],[1,0.5]];portConstraint=eastwest;fontSize=14;" parent="vcQmQjNFYbKj1KRwqDo2-9" vertex="1"><mxGeometry y="70" width="310" height="25" as="geometry"/></mxCell><mxCell id="vcQmQjNFYbKj1KRwqDo2-15" value="+ param: List&lt;Object&gt;" style="text;strokeColor=none;fillColor=none;align=left;verticalAlign=top;spacingLeft=4;spacingRight=4;overflow=hidden;rotatable=0;points=[[0,0.5],[1,0.5]];portConstraint=eastwest;fontSize=14;" parent="vcQmQjNFYbKj1KRwqDo2-9" vertex="1"><mxGeometry y="95" width="310" height="25" as="geometry"/></mxCell><mxCell id="vcQmQjNFYbKj1KRwqDo2-11" value="" style="line;strokeWidth=1;fillColor=none;align=left;verticalAlign=middle;spacingTop=-1;spacingLeft=3;spacingRight=3;rotatable=0;labelPosition=right;points=[];portConstraint=eastwest;fontSize=14;" parent="vcQmQjNFYbKj1KRwqDo2-9" vertex="1"><mxGeometry y="120" width="310" height="8" as="geometry"/></mxCell><mxCell id="vcQmQjNFYbKj1KRwqDo2-12" value="+ execute(): void" style="text;strokeColor=none;fillColor=none;align=left;verticalAlign=top;spacingLeft=4;spacingRight=4;overflow=hidden;rotatable=0;points=[[0,0.5],[1,0.5]];portConstraint=eastwest;fontSize=14;" parent="vcQmQjNFYbKj1KRwqDo2-9" vertex="1"><mxGeometry y="128" width="310" height="26" as="geometry"/></mxCell><mxCell id="vcQmQjNFYbKj1KRwqDo2-37" style="edgeStyle=orthogonalEdgeStyle;rounded=0;orthogonalLoop=1;jettySize=auto;html=1;fontSize=14;startArrow=none;startFill=0;endArrow=classic;endFill=1;" parent="1" source="YOx6pEqo87FScYYLUbgW-18" target="vcQmQjNFYbKj1KRwqDo2-9" edge="1"><mxGeometry relative="1" as="geometry"><mxPoint x="925" y="1392" as="sourcePoint"/></mxGeometry></mxCell><mxCell id="vcQmQjNFYbKj1KRwqDo2-38" value="1..*" style="edgeLabel;html=1;align=center;verticalAlign=middle;resizable=0;points=[];fontSize=14;" parent="vcQmQjNFYbKj1KRwqDo2-37" connectable="0" vertex="1"><mxGeometry x="0.3059" y="3" relative="1" as="geometry"><mxPoint x="-1" y="-14" as="offset"/></mxGeometry></mxCell><mxCell id="vcQmQjNFYbKj1KRwqDo2-25" style="edgeStyle=orthogonalEdgeStyle;rounded=0;orthogonalLoop=1;jettySize=auto;html=1;fontSize=14;startArrow=block;startFill=0;endArrow=none;endFill=0;" parent="1" source="vcQmQjNFYbKj1KRwqDo2-21" target="vcQmQjNFYbKj1KRwqDo2-26" edge="1"><mxGeometry relative="1" as="geometry"><mxPoint x="880" y="210" as="targetPoint"/></mxGeometry></mxCell><mxCell id="vcQmQjNFYbKj1KRwqDo2-21" value="AbstractJStep" style="swimlane;fontStyle=0;childLayout=stackLayout;horizontal=1;startSize=26;fillColor=none;horizontalStack=0;resizeParent=1;resizeParentMax=0;resizeLast=0;collapsible=1;marginBottom=0;fontSize=14;" parent="1" vertex="1"><mxGeometry x="820" y="91" width="140" height="52" as="geometry"/></mxCell><mxCell id="vcQmQjNFYbKj1KRwqDo2-22" value="+ step: String" style="text;strokeColor=none;fillColor=none;align=left;verticalAlign=top;spacingLeft=4;spacingRight=4;overflow=hidden;rotatable=0;points=[[0,0.5],[1,0.5]];portConstraint=eastwest;fontSize=14;" parent="vcQmQjNFYbKj1KRwqDo2-21" vertex="1"><mxGeometry y="26" width="140" height="26" as="geometry"/></mxCell><mxCell id="vcQmQjNFYbKj1KRwqDo2-26" value="(5 subclasses)&lt;br&gt;Given ... But" style="html=1;fontSize=14;" parent="1" vertex="1"><mxGeometry x="835" y="210" width="110" height="50" as="geometry"/></mxCell><mxCell id="vcQmQjNFYbKj1KRwqDo2-28" style="edgeStyle=orthogonalEdgeStyle;rounded=0;orthogonalLoop=1;jettySize=auto;html=1;fontSize=14;startArrow=none;startFill=0;endArrow=classic;endFill=1;" parent="1" source="TBeYfV_hiMUtZMuU-4zD-10" target="TBeYfV_hiMUtZMuU-4zD-13" edge="1"><mxGeometry relative="1" as="geometry"/></mxCell><mxCell id="fe9_nct0JMd9n4NnYjBM-11" value="1..1" style="edgeLabel;html=1;align=center;verticalAlign=middle;resizable=0;points=[];fontSize=14;" parent="vcQmQjNFYbKj1KRwqDo2-28" vertex="1" connectable="0"><mxGeometry x="-0.4055" y="1" relative="1" as="geometry"><mxPoint as="offset"/></mxGeometry></mxCell><mxCell id="vcQmQjNFYbKj1KRwqDo2-29" style="edgeStyle=orthogonalEdgeStyle;rounded=0;orthogonalLoop=1;jettySize=auto;html=1;fontSize=14;startArrow=block;startFill=0;endArrow=none;endFill=0;" parent="1" source="fe9_nct0JMd9n4NnYjBM-1" target="vcQmQjNFYbKj1KRwqDo2-32" edge="1"><mxGeometry relative="1" as="geometry"><mxPoint x="762" y="799" as="targetPoint"/><mxPoint x="762" y="740" as="sourcePoint"/></mxGeometry></mxCell><mxCell id="vcQmQjNFYbKj1KRwqDo2-32" value="(5 subclasses)&lt;br&gt;Given ... But" style="html=1;fontSize=14;" parent="1" vertex="1"><mxGeometry x="570" y="833" width="110" height="50" as="geometry"/></mxCell><mxCell id="YOx6pEqo87FScYYLUbgW-22" style="edgeStyle=orthogonalEdgeStyle;rounded=0;orthogonalLoop=1;jettySize=auto;html=1;fontSize=14;" parent="1" source="YOx6pEqo87FScYYLUbgW-10" target="YOx6pEqo87FScYYLUbgW-18" edge="1"><mxGeometry relative="1" as="geometry"/></mxCell><mxCell id="YOx6pEqo87FScYYLUbgW-23" value="1..*" style="edgeLabel;html=1;align=center;verticalAlign=middle;resizable=0;points=[];fontSize=14;" parent="YOx6pEqo87FScYYLUbgW-22" connectable="0" vertex="1"><mxGeometry x="0.725" y="-1" relative="1" as="geometry"><mxPoint y="-14" as="offset"/></mxGeometry></mxCell><mxCell id="YOx6pEqo87FScYYLUbgW-24" style="edgeStyle=orthogonalEdgeStyle;rounded=0;orthogonalLoop=1;jettySize=auto;html=1;fontSize=14;" parent="1" source="YOx6pEqo87FScYYLUbgW-10" target="YOx6pEqo87FScYYLUbgW-14" edge="1"><mxGeometry relative="1" as="geometry"/></mxCell><mxCell id="YOx6pEqo87FScYYLUbgW-25" value="1..*" style="edgeLabel;html=1;align=center;verticalAlign=middle;resizable=0;points=[];fontSize=14;" parent="YOx6pEqo87FScYYLUbgW-24" connectable="0" vertex="1"><mxGeometry x="0.7227" y="2" relative="1" as="geometry"><mxPoint x="-2" y="-18" as="offset"/></mxGeometry></mxCell><mxCell id="YOx6pEqo87FScYYLUbgW-10" value="JFeature" style="swimlane;fontStyle=1;align=center;verticalAlign=top;childLayout=stackLayout;horizontal=1;startSize=26;horizontalStack=0;resizeParent=1;resizeParentMax=0;resizeLast=0;collapsible=1;marginBottom=0;fontSize=14;" parent="1" vertex="1"><mxGeometry x="55" y="1291" width="310" height="138" as="geometry"/></mxCell><mxCell id="YOx6pEqo87FScYYLUbgW-2" value="+ title: String" style="text;strokeColor=none;fillColor=none;align=left;verticalAlign=top;spacingLeft=4;spacingRight=4;overflow=hidden;rotatable=0;points=[[0,0.5],[1,0.5]];portConstraint=eastwest;fontSize=14;" parent="YOx6pEqo87FScYYLUbgW-10" vertex="1"><mxGeometry y="26" width="310" height="26" as="geometry"/></mxCell><mxCell id="YOx6pEqo87FScYYLUbgW-3" value="+ tags: List&lt;String&gt;" style="text;strokeColor=none;fillColor=none;align=left;verticalAlign=top;spacingLeft=4;spacingRight=4;overflow=hidden;rotatable=0;points=[[0,0.5],[1,0.5]];portConstraint=eastwest;fontSize=14;" parent="YOx6pEqo87FScYYLUbgW-10" vertex="1"><mxGeometry y="52" width="310" height="26" as="geometry"/></mxCell><mxCell id="YOx6pEqo87FScYYLUbgW-12" value="" style="line;strokeWidth=1;fillColor=none;align=left;verticalAlign=middle;spacingTop=-1;spacingLeft=3;spacingRight=3;rotatable=0;labelPosition=right;points=[];portConstraint=eastwest;fontSize=14;" parent="YOx6pEqo87FScYYLUbgW-10" vertex="1"><mxGeometry y="78" width="310" height="8" as="geometry"/></mxCell><mxCell id="YOx6pEqo87FScYYLUbgW-13" value="+ executeAll()" style="text;strokeColor=none;fillColor=none;align=left;verticalAlign=top;spacingLeft=4;spacingRight=4;overflow=hidden;rotatable=0;points=[[0,0.5],[1,0.5]];portConstraint=eastwest;fontSize=14;" parent="YOx6pEqo87FScYYLUbgW-10" vertex="1"><mxGeometry y="86" width="310" height="26" as="geometry"/></mxCell><mxCell id="ivuC6BEx9TsKBJKYuj1_-3" value="+ executeByTag(tag: BaseFilteringTag): void" style="text;strokeColor=none;fillColor=none;align=left;verticalAlign=top;spacingLeft=4;spacingRight=4;overflow=hidden;rotatable=0;points=[[0,0.5],[1,0.5]];portConstraint=eastwest;fontSize=14;" parent="YOx6pEqo87FScYYLUbgW-10" vertex="1"><mxGeometry y="112" width="310" height="26" as="geometry"/></mxCell><mxCell id="YOx6pEqo87FScYYLUbgW-26" style="edgeStyle=orthogonalEdgeStyle;rounded=0;orthogonalLoop=1;jettySize=auto;html=1;fontSize=14;" parent="1" source="YOx6pEqo87FScYYLUbgW-14" target="YOx6pEqo87FScYYLUbgW-18" edge="1"><mxGeometry relative="1" as="geometry"/></mxCell><mxCell id="YOx6pEqo87FScYYLUbgW-28" value="1..*" style="edgeLabel;html=1;align=center;verticalAlign=middle;resizable=0;points=[];fontSize=14;" parent="YOx6pEqo87FScYYLUbgW-26" connectable="0" vertex="1"><mxGeometry x="-0.1621" y="2" relative="1" as="geometry"><mxPoint y="-15" as="offset"/></mxGeometry></mxCell><mxCell id="YOx6pEqo87FScYYLUbgW-14" value="JScenarioOutline" style="swimlane;fontStyle=1;align=center;verticalAlign=top;childLayout=stackLayout;horizontal=1;startSize=26;horizontalStack=0;resizeParent=1;resizeParentMax=0;resizeLast=0;collapsible=1;marginBottom=0;fontSize=14;" parent="1" vertex="1"><mxGeometry x="195" y="1515" width="390" height="138" as="geometry"/></mxCell><mxCell id="YOx6pEqo87FScYYLUbgW-5" value="+ title: String" style="text;strokeColor=none;fillColor=none;align=left;verticalAlign=top;spacingLeft=4;spacingRight=4;overflow=hidden;rotatable=0;points=[[0,0.5],[1,0.5]];portConstraint=eastwest;fontSize=14;" parent="YOx6pEqo87FScYYLUbgW-14" vertex="1"><mxGeometry y="26" width="390" height="26" as="geometry"/></mxCell><mxCell id="ivuC6BEx9TsKBJKYuj1_-4" value="+ tags: List&lt;String&gt;" style="text;strokeColor=none;fillColor=none;align=left;verticalAlign=top;spacingLeft=4;spacingRight=4;overflow=hidden;rotatable=0;points=[[0,0.5],[1,0.5]];portConstraint=eastwest;fontSize=14;" parent="YOx6pEqo87FScYYLUbgW-14" vertex="1"><mxGeometry y="52" width="390" height="26" as="geometry"/></mxCell><mxCell id="YOx6pEqo87FScYYLUbgW-16" value="" style="line;strokeWidth=1;fillColor=none;align=left;verticalAlign=middle;spacingTop=-1;spacingLeft=3;spacingRight=3;rotatable=0;labelPosition=right;points=[];portConstraint=eastwest;fontSize=14;" parent="YOx6pEqo87FScYYLUbgW-14" vertex="1"><mxGeometry y="78" width="390" height="8" as="geometry"/></mxCell><mxCell id="YOx6pEqo87FScYYLUbgW-17" value="+ execute(): void" style="text;strokeColor=none;fillColor=none;align=left;verticalAlign=top;spacingLeft=4;spacingRight=4;overflow=hidden;rotatable=0;points=[[0,0.5],[1,0.5]];portConstraint=eastwest;fontSize=14;" parent="YOx6pEqo87FScYYLUbgW-14" vertex="1"><mxGeometry y="86" width="390" height="26" as="geometry"/></mxCell><mxCell id="l0QXsXJP0UhDWH5q7zVn-1" value="+ executeConditionallyBy(tag: BaseFilteringTag): void" style="text;strokeColor=none;fillColor=none;align=left;verticalAlign=top;spacingLeft=4;spacingRight=4;overflow=hidden;rotatable=0;points=[[0,0.5],[1,0.5]];portConstraint=eastwest;fontSize=14;" parent="YOx6pEqo87FScYYLUbgW-14" vertex="1"><mxGeometry y="112" width="390" height="26" as="geometry"/></mxCell><mxCell id="YOx6pEqo87FScYYLUbgW-18" value="JScenario" style="swimlane;fontStyle=1;align=center;verticalAlign=top;childLayout=stackLayout;horizontal=1;startSize=26;horizontalStack=0;resizeParent=1;resizeParentMax=0;resizeLast=0;collapsible=1;marginBottom=0;fontSize=14;" parent="1" vertex="1"><mxGeometry x="595" y="1291" width="400" height="138" as="geometry"/></mxCell><mxCell id="YOx6pEqo87FScYYLUbgW-19" value="+ title: String" style="text;strokeColor=none;fillColor=none;align=left;verticalAlign=top;spacingLeft=4;spacingRight=4;overflow=hidden;rotatable=0;points=[[0,0.5],[1,0.5]];portConstraint=eastwest;fontSize=14;" parent="YOx6pEqo87FScYYLUbgW-18" vertex="1"><mxGeometry y="26" width="400" height="26" as="geometry"/></mxCell><mxCell id="ivuC6BEx9TsKBJKYuj1_-2" value="+ tags: List&lt;String&gt;" style="text;strokeColor=none;fillColor=none;align=left;verticalAlign=top;spacingLeft=4;spacingRight=4;overflow=hidden;rotatable=0;points=[[0,0.5],[1,0.5]];portConstraint=eastwest;fontSize=14;" parent="YOx6pEqo87FScYYLUbgW-18" vertex="1"><mxGeometry y="52" width="400" height="26" as="geometry"/></mxCell><mxCell id="YOx6pEqo87FScYYLUbgW-20" value="" style="line;strokeWidth=1;fillColor=none;align=left;verticalAlign=middle;spacingTop=-1;spacingLeft=3;spacingRight=3;rotatable=0;labelPosition=right;points=[];portConstraint=eastwest;fontSize=14;" parent="YOx6pEqo87FScYYLUbgW-18" vertex="1"><mxGeometry y="78" width="400" height="8" as="geometry"/></mxCell><mxCell id="YOx6pEqo87FScYYLUbgW-21" value="+ execute(): void" style="text;strokeColor=none;fillColor=none;align=left;verticalAlign=top;spacingLeft=4;spacingRight=4;overflow=hidden;rotatable=0;points=[[0,0.5],[1,0.5]];portConstraint=eastwest;fontSize=14;" parent="YOx6pEqo87FScYYLUbgW-18" vertex="1"><mxGeometry y="86" width="400" height="26" as="geometry"/></mxCell><mxCell id="l0QXsXJP0UhDWH5q7zVn-2" value="+ executeConditionallyBy(tag: BaseFilteringTag): void" style="text;strokeColor=none;fillColor=none;align=left;verticalAlign=top;spacingLeft=4;spacingRight=4;overflow=hidden;rotatable=0;points=[[0,0.5],[1,0.5]];portConstraint=eastwest;fontSize=14;" parent="YOx6pEqo87FScYYLUbgW-18" vertex="1"><mxGeometry y="112" width="400" height="26" as="geometry"/></mxCell><mxCell id="siLybOBEUU1NM1Dc4eDs-4" value="models" style="text;html=1;align=center;verticalAlign=middle;resizable=0;points=[];autosize=1;strokeColor=none;fillColor=none;fontSize=14;" parent="1" vertex="1"><mxGeometry x="1270" y="50" width="60" height="20" as="geometry"/></mxCell><mxCell id="siLybOBEUU1NM1Dc4eDs-11" value="execution" style="text;html=1;align=center;verticalAlign=middle;resizable=0;points=[];autosize=1;strokeColor=none;fillColor=none;fontSize=14;" parent="1" vertex="1"><mxGeometry x="1240" y="1121.5" width="80" height="20" as="geometry"/></mxCell><mxCell id="fe9_nct0JMd9n4NnYjBM-1" value="AbstractJStepMatcher" style="swimlane;fontStyle=0;childLayout=stackLayout;horizontal=1;startSize=26;fillColor=none;horizontalStack=0;resizeParent=1;resizeParentMax=0;resizeLast=0;collapsible=1;marginBottom=0;labelBackgroundColor=none;fontSize=14;" parent="1" vertex="1"><mxGeometry x="530" y="649.5" width="190" height="52" as="geometry"/></mxCell><mxCell id="fe9_nct0JMd9n4NnYjBM-4" value="+ matchingString: String" style="text;strokeColor=none;fillColor=none;align=left;verticalAlign=top;spacingLeft=4;spacingRight=4;overflow=hidden;rotatable=0;points=[[0,0.5],[1,0.5]];portConstraint=eastwest;labelBackgroundColor=none;fontSize=14;" parent="fe9_nct0JMd9n4NnYjBM-1" vertex="1"><mxGeometry y="26" width="190" height="26" as="geometry"/></mxCell><mxCell id="L-LXKJ2BV7JLq8FY5iER-11" style="edgeStyle=orthogonalEdgeStyle;rounded=0;orthogonalLoop=1;jettySize=auto;html=1;fontSize=14;" parent="1" source="fe9_nct0JMd9n4NnYjBM-7" target="L-LXKJ2BV7JLq8FY5iER-7" edge="1"><mxGeometry relative="1" as="geometry"/></mxCell><mxCell id="7wAdUKvD49lnHzRwlXxg-2" style="edgeStyle=orthogonalEdgeStyle;rounded=0;orthogonalLoop=1;jettySize=auto;html=1;dashed=1;" parent="1" source="fe9_nct0JMd9n4NnYjBM-7" target="rIFfduCq619WtznapJ5H-14" edge="1"><mxGeometry relative="1" as="geometry"/></mxCell><mxCell id="fe9_nct0JMd9n4NnYjBM-7" value="JFeatureBuilder" style="swimlane;fontStyle=1;align=center;verticalAlign=top;childLayout=stackLayout;horizontal=1;startSize=26;horizontalStack=0;resizeParent=1;resizeParentMax=0;resizeLast=0;collapsible=1;marginBottom=0;labelBackgroundColor=none;fontSize=14;fillColor=none;" parent="1" vertex="1"><mxGeometry x="1470" y="837" width="450" height="74" as="geometry"/></mxCell><mxCell id="L-LXKJ2BV7JLq8FY5iER-1" style="line;strokeWidth=1;fillColor=none;align=left;verticalAlign=middle;spacingTop=-1;spacingLeft=3;spacingRight=3;rotatable=0;labelPosition=right;points=[];portConstraint=eastwest;labelBackgroundColor=none;fontSize=14;" parent="fe9_nct0JMd9n4NnYjBM-7" vertex="1"><mxGeometry y="26" width="450" height="8" as="geometry"/></mxCell><mxCell id="L-LXKJ2BV7JLq8FY5iER-3" value="+ build(featureDetail: JFeatureDetail, stepDefDetail: JStepDefDetail, &#10;objectProvider: BaseObjectProvider): JFeature" style="text;strokeColor=none;fillColor=none;align=left;verticalAlign=top;spacingLeft=4;spacingRight=4;overflow=hidden;rotatable=0;points=[[0,0.5],[1,0.5]];portConstraint=eastwest;labelBackgroundColor=none;fontSize=14;" parent="fe9_nct0JMd9n4NnYjBM-7" vertex="1"><mxGeometry y="34" width="450" height="40" as="geometry"/></mxCell><mxCell id="rIFfduCq619WtznapJ5H-7" value="EasyCachingObjectProvider" style="swimlane;fontStyle=1;align=center;verticalAlign=top;childLayout=stackLayout;horizontal=1;startSize=26;horizontalStack=0;resizeParent=1;resizeParentMax=0;resizeLast=0;collapsible=1;marginBottom=0;fontSize=14;" parent="1" vertex="1"><mxGeometry x="2050" y="1051" width="300" height="150" as="geometry"/></mxCell><mxCell id="rIFfduCq619WtznapJ5H-18" value="- objects: Map&lt;Class, Object&gt;" style="text;strokeColor=none;fillColor=none;align=left;verticalAlign=top;spacingLeft=4;spacingRight=4;overflow=hidden;rotatable=0;points=[[0,0.5],[1,0.5]];portConstraint=eastwest;fontSize=14;" parent="rIFfduCq619WtznapJ5H-7" vertex="1"><mxGeometry y="26" width="300" height="26" as="geometry"/></mxCell><mxCell id="rIFfduCq619WtznapJ5H-9" value="" style="line;strokeWidth=1;fillColor=none;align=left;verticalAlign=middle;spacingTop=-1;spacingLeft=3;spacingRight=3;rotatable=0;labelPosition=right;points=[];portConstraint=eastwest;fontSize=14;" parent="rIFfduCq619WtznapJ5H-7" vertex="1"><mxGeometry y="52" width="300" height="8" as="geometry"/></mxCell><mxCell id="rIFfduCq619WtznapJ5H-10" value="+ get(clazz: Class&lt;T&gt;): T&#10;(simply retrive from the map objects, &#10;or create one from sourceClasses and &#10;added it to the map objects)" style="text;strokeColor=none;fillColor=none;align=left;verticalAlign=top;spacingLeft=4;spacingRight=4;overflow=hidden;rotatable=0;points=[[0,0.5],[1,0.5]];portConstraint=eastwest;fontSize=14;" parent="rIFfduCq619WtznapJ5H-7" vertex="1"><mxGeometry y="60" width="300" height="90" as="geometry"/></mxCell><mxCell id="rIFfduCq619WtznapJ5H-20" style="edgeStyle=orthogonalEdgeStyle;rounded=0;orthogonalLoop=1;jettySize=auto;html=1;fontSize=14;startArrow=block;startFill=0;endArrow=none;endFill=0;" parent="1" source="rIFfduCq619WtznapJ5H-14" target="rIFfduCq619WtznapJ5H-7" edge="1"><mxGeometry relative="1" as="geometry"/></mxCell><mxCell id="rIFfduCq619WtznapJ5H-14" value="&lt;&lt;Interface&gt;&gt;&#10;BaseObjectProvider" style="swimlane;fontStyle=0;childLayout=stackLayout;horizontal=1;startSize=45;fillColor=none;horizontalStack=0;resizeParent=1;resizeParentMax=0;resizeLast=0;collapsible=1;marginBottom=0;fontSize=14;" parent="1" vertex="1"><mxGeometry x="2060" y="837" width="280" height="123" as="geometry"/></mxCell><mxCell id="rIFfduCq619WtznapJ5H-15" value="+ initialize(): void" style="text;strokeColor=none;fillColor=none;align=left;verticalAlign=top;spacingLeft=4;spacingRight=4;overflow=hidden;rotatable=0;points=[[0,0.5],[1,0.5]];portConstraint=eastwest;fontSize=14;" parent="rIFfduCq619WtznapJ5H-14" vertex="1"><mxGeometry y="45" width="280" height="26" as="geometry"/></mxCell><mxCell id="rIFfduCq619WtznapJ5H-16" value="+ get(clazz: Class&lt;T&gt;): T" style="text;strokeColor=none;fillColor=none;align=left;verticalAlign=top;spacingLeft=4;spacingRight=4;overflow=hidden;rotatable=0;points=[[0,0.5],[1,0.5]];portConstraint=eastwest;fontSize=14;" parent="rIFfduCq619WtznapJ5H-14" vertex="1"><mxGeometry y="71" width="280" height="26" as="geometry"/></mxCell><mxCell id="rIFfduCq619WtznapJ5H-17" value="+ shutDown(): void" style="text;strokeColor=none;fillColor=none;align=left;verticalAlign=top;spacingLeft=4;spacingRight=4;overflow=hidden;rotatable=0;points=[[0,0.5],[1,0.5]];portConstraint=eastwest;fontSize=14;" parent="rIFfduCq619WtznapJ5H-14" vertex="1"><mxGeometry y="97" width="280" height="26" as="geometry"/></mxCell><mxCell id="V1_ux5TdtXmBjY7yvtHx-3" value="JStepDefSourceDetail (Currently unused)" style="swimlane;fontStyle=0;childLayout=stackLayout;horizontal=1;startSize=26;fillColor=none;horizontalStack=0;resizeParent=1;resizeParentMax=0;resizeLast=0;collapsible=1;marginBottom=0;fontSize=14;" parent="1" vertex="1"><mxGeometry x="40" y="800" width="350" height="140" as="geometry"/></mxCell><mxCell id="V1_ux5TdtXmBjY7yvtHx-4" value="+ classes: List&lt;Class&lt;*&gt;&gt;" style="text;strokeColor=none;fillColor=none;align=left;verticalAlign=top;spacingLeft=4;spacingRight=4;overflow=hidden;rotatable=0;points=[[0,0.5],[1,0.5]];portConstraint=eastwest;fontSize=14;" parent="V1_ux5TdtXmBjY7yvtHx-3" vertex="1"><mxGeometry y="26" width="350" height="26" as="geometry"/></mxCell><mxCell id="V1_ux5TdtXmBjY7yvtHx-5" value="+ instances: List&lt;Object&gt;" style="text;strokeColor=none;fillColor=none;align=left;verticalAlign=top;spacingLeft=4;spacingRight=4;overflow=hidden;rotatable=0;points=[[0,0.5],[1,0.5]];portConstraint=eastwest;fontSize=14;" parent="V1_ux5TdtXmBjY7yvtHx-3" vertex="1"><mxGeometry y="52" width="350" height="26" as="geometry"/></mxCell><mxCell id="V1_ux5TdtXmBjY7yvtHx-6" value="+ creations: List&lt;Supplier&lt;*&gt;&gt;&#10;(users may want to pass in a function describing &#10;how to create the instance of a step definition class)" style="text;strokeColor=none;fillColor=none;align=left;verticalAlign=top;spacingLeft=4;spacingRight=4;overflow=hidden;rotatable=0;points=[[0,0.5],[1,0.5]];portConstraint=eastwest;fontSize=14;" parent="V1_ux5TdtXmBjY7yvtHx-3" vertex="1"><mxGeometry y="78" width="350" height="62" as="geometry"/></mxCell><mxCell id="AgZsfn-MMLhvtzlFqchV-9" style="edgeStyle=orthogonalEdgeStyle;rounded=0;orthogonalLoop=1;jettySize=auto;html=1;fontSize=14;" parent="1" source="AgZsfn-MMLhvtzlFqchV-5" target="TBeYfV_hiMUtZMuU-4zD-1" edge="1"><mxGeometry relative="1" as="geometry"/></mxCell><mxCell id="AgZsfn-MMLhvtzlFqchV-10" value="1..*" style="edgeLabel;html=1;align=center;verticalAlign=middle;resizable=0;points=[];fontSize=14;" parent="AgZsfn-MMLhvtzlFqchV-9" vertex="1" connectable="0"><mxGeometry x="0.1796" relative="1" as="geometry"><mxPoint x="10" y="10" as="offset"/></mxGeometry></mxCell><mxCell id="AgZsfn-MMLhvtzlFqchV-5" value="JStepDefDetail" style="swimlane;fontStyle=0;childLayout=stackLayout;horizontal=1;startSize=26;fillColor=none;horizontalStack=0;resizeParent=1;resizeParentMax=0;resizeLast=0;collapsible=1;marginBottom=0;fontSize=14;" parent="1" vertex="1"><mxGeometry x="60" y="480" width="300" height="52" as="geometry"/></mxCell><mxCell id="L-LXKJ2BV7JLq8FY5iER-7" value="JStepParameterExtractor" style="swimlane;fontStyle=1;align=center;verticalAlign=top;childLayout=stackLayout;horizontal=1;startSize=26;horizontalStack=0;resizeParent=1;resizeParentMax=0;resizeLast=0;collapsible=1;marginBottom=0;fontSize=14;" parent="1" vertex="1"><mxGeometry x="1510" y="1007.5" width="370" height="114" as="geometry"/></mxCell><mxCell id="L-LXKJ2BV7JLq8FY5iER-9" value="" style="line;strokeWidth=1;fillColor=none;align=left;verticalAlign=middle;spacingTop=-1;spacingLeft=3;spacingRight=3;rotatable=0;labelPosition=right;points=[];portConstraint=eastwest;fontSize=14;" parent="L-LXKJ2BV7JLq8FY5iER-7" vertex="1"><mxGeometry y="26" width="370" height="8" as="geometry"/></mxCell><mxCell id="fe9_nct0JMd9n4NnYjBM-10" value="+ match(jStepLiteral: AbstractJStep, &#10;jStepMatcher: AbstractJStepMatcher): boolean" style="text;strokeColor=none;fillColor=none;align=left;verticalAlign=top;spacingLeft=4;spacingRight=4;overflow=hidden;rotatable=0;points=[[0,0.5],[1,0.5]];portConstraint=eastwest;labelBackgroundColor=none;fontSize=14;" parent="L-LXKJ2BV7JLq8FY5iER-7" vertex="1"><mxGeometry y="34" width="370" height="40" as="geometry"/></mxCell><mxCell id="umWrQVnrWF-r_OTi0CvD-1" value="+ extractParameters(jStepLiteral: AbstractJStep,&#10;jStepMatcher: AbstractJStepMatcher): List&lt;Object&gt;" style="text;strokeColor=none;fillColor=none;align=left;verticalAlign=top;spacingLeft=4;spacingRight=4;overflow=hidden;rotatable=0;points=[[0,0.5],[1,0.5]];portConstraint=eastwest;labelBackgroundColor=none;fontSize=14;" parent="L-LXKJ2BV7JLq8FY5iER-7" vertex="1"><mxGeometry y="74" width="370" height="40" as="geometry"/></mxCell><mxCell id="L-LXKJ2BV7JLq8FY5iER-13" value="builder" style="text;html=1;strokeColor=none;fillColor=none;align=center;verticalAlign=middle;whiteSpace=wrap;rounded=0;fontSize=14;" parent="1" vertex="1"><mxGeometry x="2320" y="725" width="60" height="30" as="geometry"/></mxCell><mxCell id="L-LXKJ2BV7JLq8FY5iER-14" value="" style="html=1;dropTarget=0;fontSize=14;fillColor=none;strokeColor=default;" parent="1" vertex="1"><mxGeometry x="1430" y="41" width="1020" height="559" as="geometry"/></mxCell><mxCell id="L-LXKJ2BV7JLq8FY5iER-15" value="" style="shape=module;jettyWidth=8;jettyHeight=4;fontSize=14;" parent="L-LXKJ2BV7JLq8FY5iER-14" vertex="1"><mxGeometry x="1" width="20" height="20" relative="1" as="geometry"><mxPoint x="-27" y="7" as="offset"/></mxGeometry></mxCell><mxCell id="L-LXKJ2BV7JLq8FY5iER-16" value="JFeatureFileParser" style="swimlane;fontStyle=1;align=center;verticalAlign=top;childLayout=stackLayout;horizontal=1;startSize=26;horizontalStack=0;resizeParent=1;resizeParentMax=0;resizeLast=0;collapsible=1;marginBottom=0;fontSize=14;strokeColor=default;fillColor=none;" parent="1" vertex="1"><mxGeometry x="1480" y="83" width="330" height="60" as="geometry"/></mxCell><mxCell id="L-LXKJ2BV7JLq8FY5iER-18" value="" style="line;strokeWidth=1;fillColor=none;align=left;verticalAlign=middle;spacingTop=-1;spacingLeft=3;spacingRight=3;rotatable=0;labelPosition=right;points=[];portConstraint=eastwest;fontSize=14;" parent="L-LXKJ2BV7JLq8FY5iER-16" vertex="1"><mxGeometry y="26" width="330" height="8" as="geometry"/></mxCell><mxCell id="L-LXKJ2BV7JLq8FY5iER-19" value="+ parse(featureFile: Path): JFeatureDetail" style="text;strokeColor=none;fillColor=none;align=left;verticalAlign=top;spacingLeft=4;spacingRight=4;overflow=hidden;rotatable=0;points=[[0,0.5],[1,0.5]];portConstraint=eastwest;fontSize=14;" parent="L-LXKJ2BV7JLq8FY5iER-16" vertex="1"><mxGeometry y="34" width="330" height="26" as="geometry"/></mxCell><mxCell id="L-LXKJ2BV7JLq8FY5iER-21" value="DetailBuilder" style="swimlane;fontStyle=1;align=center;verticalAlign=top;childLayout=stackLayout;horizontal=1;startSize=26;horizontalStack=0;resizeParent=1;resizeParentMax=0;resizeLast=0;collapsible=1;marginBottom=0;fontSize=14;strokeColor=default;fillColor=none;" parent="1" vertex="1"><mxGeometry x="1810" y="430" width="620" height="126" as="geometry"/></mxCell><mxCell id="L-LXKJ2BV7JLq8FY5iER-22" value="" style="line;strokeWidth=1;fillColor=none;align=left;verticalAlign=middle;spacingTop=-1;spacingLeft=3;spacingRight=3;rotatable=0;labelPosition=right;points=[];portConstraint=eastwest;fontSize=14;" parent="L-LXKJ2BV7JLq8FY5iER-21" vertex="1"><mxGeometry y="26" width="620" height="8" as="geometry"/></mxCell><mxCell id="L-LXKJ2BV7JLq8FY5iER-23" value="+ buildJScenarioOutlineDetail(title: String, stepsLiteral: List&lt;String&gt;, &#10;examplesLiteral: List&lt;String&gt;, scenarioOutlineTagsLiteral: List&lt;String&gt;): JScenarioOutlineDetail" style="text;strokeColor=none;fillColor=none;align=left;verticalAlign=top;spacingLeft=4;spacingRight=4;overflow=hidden;rotatable=0;points=[[0,0.5],[1,0.5]];portConstraint=eastwest;fontSize=14;" parent="L-LXKJ2BV7JLq8FY5iER-21" vertex="1"><mxGeometry y="34" width="620" height="46" as="geometry"/></mxCell><mxCell id="L-LXKJ2BV7JLq8FY5iER-25" value="+ buildJScenarioDetail(title: String, stepsLiteral: List&lt;String&gt;, &#10;tagsLiteral: List&lt;String&gt;): JScenarioDetail" style="text;strokeColor=none;fillColor=none;align=left;verticalAlign=top;spacingLeft=4;spacingRight=4;overflow=hidden;rotatable=0;points=[[0,0.5],[1,0.5]];portConstraint=eastwest;fontSize=14;" parent="L-LXKJ2BV7JLq8FY5iER-21" vertex="1"><mxGeometry y="80" width="620" height="46" as="geometry"/></mxCell><mxCell id="L-LXKJ2BV7JLq8FY5iER-26" value="parser" style="text;html=1;strokeColor=none;fillColor=none;align=center;verticalAlign=middle;whiteSpace=wrap;rounded=0;fontSize=14;" parent="1" vertex="1"><mxGeometry x="2350" y="50" width="60" height="30" as="geometry"/></mxCell><mxCell id="rc6xHTn8eK8BHhvCm82I-9" value="JStepDefinitionParser" style="swimlane;fontStyle=1;align=center;verticalAlign=top;childLayout=stackLayout;horizontal=1;startSize=26;horizontalStack=0;resizeParent=1;resizeParentMax=0;resizeLast=0;collapsible=1;marginBottom=0;fontSize=14;" parent="1" vertex="1"><mxGeometry x="1480" y="290" width="380" height="60" as="geometry"/></mxCell><mxCell id="rc6xHTn8eK8BHhvCm82I-11" value="" style="line;strokeWidth=1;fillColor=none;align=left;verticalAlign=middle;spacingTop=-1;spacingLeft=3;spacingRight=3;rotatable=0;labelPosition=right;points=[];portConstraint=eastwest;fontSize=14;" parent="rc6xHTn8eK8BHhvCm82I-9" vertex="1"><mxGeometry y="26" width="380" height="8" as="geometry"/></mxCell><mxCell id="rc6xHTn8eK8BHhvCm82I-12" value="+ parse(stepDefinitionClass: Class): JStepDefDetail" style="text;strokeColor=none;fillColor=none;align=left;verticalAlign=top;spacingLeft=4;spacingRight=4;overflow=hidden;rotatable=0;points=[[0,0.5],[1,0.5]];portConstraint=eastwest;fontSize=14;" parent="rc6xHTn8eK8BHhvCm82I-9" vertex="1"><mxGeometry y="34" width="380" height="26" as="geometry"/></mxCell><mxCell id="d-It__MnvthCrCJ7Uwu9-5" value="JFeatureFileLineByLineParser" style="swimlane;fontStyle=1;align=center;verticalAlign=top;childLayout=stackLayout;horizontal=1;startSize=26;horizontalStack=0;resizeParent=1;resizeParentMax=0;resizeLast=0;collapsible=1;marginBottom=0;fontSize=14;" parent="1" vertex="1"><mxGeometry x="1910" y="83" width="450" height="60" as="geometry"/></mxCell><mxCell id="d-It__MnvthCrCJ7Uwu9-7" value="" style="line;strokeWidth=1;fillColor=none;align=left;verticalAlign=middle;spacingTop=-1;spacingLeft=3;spacingRight=3;rotatable=0;labelPosition=right;points=[];portConstraint=eastwest;fontSize=14;" parent="d-It__MnvthCrCJ7Uwu9-5" vertex="1"><mxGeometry y="26" width="450" height="8" as="geometry"/></mxCell><mxCell id="d-It__MnvthCrCJ7Uwu9-8" value="+ acceptThrow(line: String): void" style="text;strokeColor=none;fillColor=none;align=left;verticalAlign=top;spacingLeft=4;spacingRight=4;overflow=hidden;rotatable=0;points=[[0,0.5],[1,0.5]];portConstraint=eastwest;fontSize=14;" parent="d-It__MnvthCrCJ7Uwu9-5" vertex="1"><mxGeometry y="34" width="450" height="26" as="geometry"/></mxCell><mxCell id="d-It__MnvthCrCJ7Uwu9-10" style="edgeStyle=orthogonalEdgeStyle;rounded=0;orthogonalLoop=1;jettySize=auto;html=1;fontSize=14;" parent="1" source="d-It__MnvthCrCJ7Uwu9-5" target="L-LXKJ2BV7JLq8FY5iER-21" edge="1"><mxGeometry relative="1" as="geometry"/></mxCell><mxCell id="7wAdUKvD49lnHzRwlXxg-1" style="edgeStyle=orthogonalEdgeStyle;rounded=0;orthogonalLoop=1;jettySize=auto;html=1;" parent="1" source="L-LXKJ2BV7JLq8FY5iER-16" target="d-It__MnvthCrCJ7Uwu9-5" edge="1"><mxGeometry relative="1" as="geometry"/></mxCell><mxCell id="l0QXsXJP0UhDWH5q7zVn-9" style="edgeStyle=orthogonalEdgeStyle;rounded=0;orthogonalLoop=1;jettySize=auto;html=1;fontSize=14;startArrow=block;startFill=0;endArrow=none;endFill=0;entryX=0.5;entryY=0;entryDx=0;entryDy=0;" parent="1" source="l0QXsXJP0UhDWH5q7zVn-4" edge="1" target="3zrLQBE2PNQSowMt7nZE-1"><mxGeometry relative="1" as="geometry"><mxPoint x="560" y="1860" as="targetPoint"/></mxGeometry></mxCell><mxCell id="l0QXsXJP0UhDWH5q7zVn-4" value="&lt;p style=&quot;margin: 4px 0px 0px ; text-align: center ; font-size: 14px&quot;&gt;&lt;i style=&quot;font-size: 14px&quot;&gt;&amp;lt;&amp;lt;Interface&amp;gt;&amp;gt;&lt;/i&gt;&lt;br style=&quot;font-size: 14px&quot;&gt;&lt;b&gt;&lt;span style=&quot;text-align: left&quot;&gt;BaseFilteringTag&lt;/span&gt;&lt;br&gt;&lt;/b&gt;&lt;/p&gt;&lt;p style=&quot;margin: 0px 0px 0px 4px ; font-size: 14px&quot;&gt;&lt;br&gt;&lt;/p&gt;&lt;hr style=&quot;font-size: 14px&quot;&gt;&lt;p style=&quot;margin: 0px 0px 0px 4px ; font-size: 14px&quot;&gt;+ isTagMatch(container: TagsContainer): boolean&lt;/p&gt;" style="verticalAlign=top;align=left;overflow=fill;fontSize=14;fontFamily=Helvetica;html=1;fillColor=none;" parent="1" vertex="1"><mxGeometry x="80" y="1730" width="340" height="100" as="geometry"/></mxCell><mxCell id="l0QXsXJP0UhDWH5q7zVn-6" style="edgeStyle=orthogonalEdgeStyle;rounded=0;orthogonalLoop=1;jettySize=auto;html=1;fontSize=14;startArrow=block;startFill=0;endArrow=none;endFill=0;entryX=0.75;entryY=0;entryDx=0;entryDy=0;exitX=0;exitY=0.5;exitDx=0;exitDy=0;" parent="1" source="l0QXsXJP0UhDWH5q7zVn-5" target="YOx6pEqo87FScYYLUbgW-14" edge="1"><mxGeometry relative="1" as="geometry"/></mxCell><mxCell id="l0QXsXJP0UhDWH5q7zVn-7" style="edgeStyle=orthogonalEdgeStyle;rounded=0;orthogonalLoop=1;jettySize=auto;html=1;fontSize=14;startArrow=block;startFill=0;endArrow=none;endFill=0;exitX=1;exitY=0.5;exitDx=0;exitDy=0;" parent="1" source="l0QXsXJP0UhDWH5q7zVn-5" target="YOx6pEqo87FScYYLUbgW-18" edge="1"><mxGeometry relative="1" as="geometry"/></mxCell><mxCell id="l0QXsXJP0UhDWH5q7zVn-5" value="&lt;p style=&quot;margin: 4px 0px 0px ; text-align: center ; font-size: 14px&quot;&gt;&lt;i style=&quot;font-size: 14px&quot;&gt;&amp;lt;&amp;lt;Interface&amp;gt;&amp;gt;&lt;/i&gt;&lt;br style=&quot;font-size: 14px&quot;&gt;&lt;b style=&quot;font-size: 14px&quot;&gt;TagsContainer&lt;/b&gt;&lt;/p&gt;&lt;hr style=&quot;font-size: 14px&quot;&gt;&lt;p style=&quot;margin: 0px 0px 0px 4px ; font-size: 14px&quot;&gt;+ getTags(): List&amp;lt;String&amp;gt;&lt;/p&gt;" style="verticalAlign=top;align=left;overflow=fill;fontSize=14;fontFamily=Helvetica;html=1;fillColor=none;" parent="1" vertex="1"><mxGeometry x="560" y="1121.5" width="190" height="79" as="geometry"/></mxCell><mxCell id="l0QXsXJP0UhDWH5q7zVn-8" style="edgeStyle=orthogonalEdgeStyle;rounded=0;orthogonalLoop=1;jettySize=auto;html=1;exitX=0.5;exitY=1;exitDx=0;exitDy=0;fontSize=14;startArrow=block;startFill=0;endArrow=none;endFill=0;" parent="1" source="l0QXsXJP0UhDWH5q7zVn-4" target="l0QXsXJP0UhDWH5q7zVn-4" edge="1"><mxGeometry relative="1" as="geometry"/></mxCell><mxCell id="3zrLQBE2PNQSowMt7nZE-1" value="&lt;font style=&quot;font-size: 14px&quot;&gt;SingleTag&lt;/font&gt;" style="html=1;" vertex="1" parent="1"><mxGeometry x="430" y="1859" width="110" height="50" as="geometry"/></mxCell><mxCell id="3zrLQBE2PNQSowMt7nZE-2" style="edgeStyle=orthogonalEdgeStyle;rounded=0;orthogonalLoop=1;jettySize=auto;html=1;fontSize=14;startArrow=block;startFill=0;endArrow=none;endFill=0;entryX=0.5;entryY=0;entryDx=0;entryDy=0;exitX=1;exitY=0.5;exitDx=0;exitDy=0;" edge="1" parent="1" target="3zrLQBE2PNQSowMt7nZE-3" source="l0QXsXJP0UhDWH5q7zVn-4"><mxGeometry relative="1" as="geometry"><mxPoint x="700" y="1860" as="targetPoint"/><mxPoint x="560" y="1780" as="sourcePoint"/></mxGeometry></mxCell><mxCell id="3zrLQBE2PNQSowMt7nZE-3" value="&lt;font style=&quot;font-size: 14px&quot;&gt;OrTags&lt;/font&gt;" style="html=1;" vertex="1" parent="1"><mxGeometry x="570" y="1859" width="110" height="50" as="geometry"/></mxCell><mxCell id="3zrLQBE2PNQSowMt7nZE-5" style="edgeStyle=orthogonalEdgeStyle;rounded=0;orthogonalLoop=1;jettySize=auto;html=1;fontSize=14;startArrow=block;startFill=0;endArrow=none;endFill=0;entryX=0.5;entryY=0;entryDx=0;entryDy=0;exitX=1;exitY=0.5;exitDx=0;exitDy=0;" edge="1" parent="1" target="3zrLQBE2PNQSowMt7nZE-6" source="l0QXsXJP0UhDWH5q7zVn-4"><mxGeometry relative="1" as="geometry"><mxPoint x="840" y="1860" as="targetPoint"/><mxPoint x="560" y="1780" as="sourcePoint"/></mxGeometry></mxCell><mxCell id="3zrLQBE2PNQSowMt7nZE-6" value="&lt;font style=&quot;font-size: 14px&quot;&gt;AndTags&lt;/font&gt;" style="html=1;" vertex="1" parent="1"><mxGeometry x="710" y="1859" width="110" height="50" as="geometry"/></mxCell><mxCell id="3zrLQBE2PNQSowMt7nZE-7" style="edgeStyle=orthogonalEdgeStyle;rounded=0;orthogonalLoop=1;jettySize=auto;html=1;fontSize=14;startArrow=block;startFill=0;endArrow=none;endFill=0;entryX=0.5;entryY=0;entryDx=0;entryDy=0;exitX=1;exitY=0.5;exitDx=0;exitDy=0;" edge="1" parent="1" target="3zrLQBE2PNQSowMt7nZE-8" source="l0QXsXJP0UhDWH5q7zVn-4"><mxGeometry relative="1" as="geometry"><mxPoint x="980" y="1860" as="targetPoint"/><mxPoint x="560" y="1780" as="sourcePoint"/></mxGeometry></mxCell><mxCell id="3zrLQBE2PNQSowMt7nZE-8" value="&lt;font style=&quot;font-size: 14px&quot;&gt;NotTag&lt;/font&gt;" style="html=1;" vertex="1" parent="1"><mxGeometry x="850" y="1859" width="110" height="50" as="geometry"/></mxCell><mxCell id="3zrLQBE2PNQSowMt7nZE-9" value="&lt;font style=&quot;font-size: 14px&quot;&gt;AlwaysTrueTag&lt;/font&gt;" style="html=1;" vertex="1" parent="1"><mxGeometry x="990" y="1859" width="150" height="50" as="geometry"/></mxCell><mxCell id="3zrLQBE2PNQSowMt7nZE-10" style="edgeStyle=orthogonalEdgeStyle;rounded=0;orthogonalLoop=1;jettySize=auto;html=1;fontSize=14;startArrow=block;startFill=0;endArrow=none;endFill=0;exitX=1;exitY=0.5;exitDx=0;exitDy=0;" edge="1" parent="1" source="l0QXsXJP0UhDWH5q7zVn-4" target="3zrLQBE2PNQSowMt7nZE-9"><mxGeometry relative="1" as="geometry"><mxPoint x="915" y="1869" as="targetPoint"/><mxPoint x="430" y="1790" as="sourcePoint"/></mxGeometry></mxCell></root></mxGraphModel></diagram><diagram id="YEfsQIwvSZCCmnmB3V1v" name="State Machine Diagram for feature file parsing"><mxGraphModel dx="1205" dy="833" grid="1" gridSize="10" guides="1" tooltips="1" connect="1" arrows="1" fold="1" page="1" pageScale="1" pageWidth="850" pageHeight="1100" math="0" shadow="0"><root><mxCell id="jiEWAmiSD6UKe6FcCc4l-0"/><mxCell id="jiEWAmiSD6UKe6FcCc4l-1" parent="jiEWAmiSD6UKe6FcCc4l-0"/><mxCell id="jiEWAmiSD6UKe6FcCc4l-41" style="edgeStyle=orthogonalEdgeStyle;rounded=0;orthogonalLoop=1;jettySize=auto;html=1;fontSize=14;" parent="jiEWAmiSD6UKe6FcCc4l-1" source="jiEWAmiSD6UKe6FcCc4l-6" target="jiEWAmiSD6UKe6FcCc4l-33" edge="1"><mxGeometry relative="1" as="geometry"/></mxCell><mxCell id="bu53QTPztvvN-XOQHEPh-1" style="edgeStyle=orthogonalEdgeStyle;rounded=0;orthogonalLoop=1;jettySize=auto;html=1;entryX=0;entryY=0.25;entryDx=0;entryDy=0;exitX=0.5;exitY=1;exitDx=0;exitDy=0;" parent="jiEWAmiSD6UKe6FcCc4l-1" source="jiEWAmiSD6UKe6FcCc4l-6" target="jiEWAmiSD6UKe6FcCc4l-57" edge="1"><mxGeometry relative="1" as="geometry"/></mxCell><mxCell id="jiEWAmiSD6UKe6FcCc4l-6" value="" style="ellipse;fillColor=#000000;strokeColor=none;fontSize=14;" parent="jiEWAmiSD6UKe6FcCc4l-1" vertex="1"><mxGeometry x="40" y="45" width="30" height="30" as="geometry"/></mxCell><mxCell id="jiEWAmiSD6UKe6FcCc4l-65" style="edgeStyle=orthogonalEdgeStyle;rounded=0;orthogonalLoop=1;jettySize=auto;html=1;exitX=0.75;exitY=1;exitDx=0;exitDy=0;entryX=0.75;entryY=1;entryDx=0;entryDy=0;fontSize=14;" parent="jiEWAmiSD6UKe6FcCc4l-1" source="jiEWAmiSD6UKe6FcCc4l-70" target="jiEWAmiSD6UKe6FcCc4l-46" edge="1"><mxGeometry relative="1" as="geometry"><mxPoint x="665" y="460" as="sourcePoint"/></mxGeometry></mxCell><mxCell id="jiEWAmiSD6UKe6FcCc4l-49" style="edgeStyle=orthogonalEdgeStyle;rounded=0;orthogonalLoop=1;jettySize=auto;html=1;fontSize=14;" parent="jiEWAmiSD6UKe6FcCc4l-1" source="jiEWAmiSD6UKe6FcCc4l-33" target="jiEWAmiSD6UKe6FcCc4l-42" edge="1"><mxGeometry relative="1" as="geometry"/></mxCell><mxCell id="jiEWAmiSD6UKe6FcCc4l-55" style="edgeStyle=orthogonalEdgeStyle;rounded=0;orthogonalLoop=1;jettySize=auto;html=1;fontSize=14;" parent="jiEWAmiSD6UKe6FcCc4l-1" source="jiEWAmiSD6UKe6FcCc4l-33" target="jiEWAmiSD6UKe6FcCc4l-57" edge="1"><mxGeometry relative="1" as="geometry"><mxPoint x="430" y="200" as="targetPoint"/></mxGeometry></mxCell><mxCell id="jiEWAmiSD6UKe6FcCc4l-56" style="edgeStyle=orthogonalEdgeStyle;rounded=0;orthogonalLoop=1;jettySize=auto;html=1;fontSize=14;" parent="jiEWAmiSD6UKe6FcCc4l-1" source="jiEWAmiSD6UKe6FcCc4l-33" target="jiEWAmiSD6UKe6FcCc4l-69" edge="1"><mxGeometry relative="1" as="geometry"><mxPoint x="630" y="420" as="targetPoint"/></mxGeometry></mxCell><mxCell id="jiEWAmiSD6UKe6FcCc4l-33" value="Feature" style="swimlane;fontStyle=4;align=center;verticalAlign=top;childLayout=stackLayout;horizontal=1;startSize=40;horizontalStack=0;resizeParent=1;resizeParentMax=0;resizeLast=0;collapsible=0;marginBottom=0;html=1;rounded=1;absoluteArcSize=1;arcSize=50;fontSize=14;" parent="jiEWAmiSD6UKe6FcCc4l-1" vertex="1"><mxGeometry x="150" y="25" width="170" height="70" as="geometry"/></mxCell><mxCell id="jiEWAmiSD6UKe6FcCc4l-37" value="Record the feature title" style="fillColor=none;strokeColor=none;align=left;verticalAlign=middle;spacingLeft=5;fontSize=14;" parent="jiEWAmiSD6UKe6FcCc4l-33" vertex="1"><mxGeometry y="40" width="170" height="30" as="geometry"/></mxCell><mxCell id="jiEWAmiSD6UKe6FcCc4l-50" style="edgeStyle=orthogonalEdgeStyle;rounded=0;orthogonalLoop=1;jettySize=auto;html=1;fontSize=14;entryX=0.75;entryY=0;entryDx=0;entryDy=0;" parent="jiEWAmiSD6UKe6FcCc4l-1" source="jiEWAmiSD6UKe6FcCc4l-42" target="jiEWAmiSD6UKe6FcCc4l-69" edge="1"><mxGeometry relative="1" as="geometry"><mxPoint x="630" y="420" as="targetPoint"/></mxGeometry></mxCell><mxCell id="jiEWAmiSD6UKe6FcCc4l-67" value="if l1 parent is feature" style="edgeLabel;html=1;align=center;verticalAlign=middle;resizable=0;points=[];fontSize=14;" parent="jiEWAmiSD6UKe6FcCc4l-50" vertex="1" connectable="0"><mxGeometry x="-0.0861" y="2" relative="1" as="geometry"><mxPoint as="offset"/></mxGeometry></mxCell><mxCell id="jiEWAmiSD6UKe6FcCc4l-51" style="edgeStyle=orthogonalEdgeStyle;rounded=0;orthogonalLoop=1;jettySize=auto;html=1;fontSize=14;entryX=0.75;entryY=0;entryDx=0;entryDy=0;exitX=0;exitY=0.25;exitDx=0;exitDy=0;" parent="jiEWAmiSD6UKe6FcCc4l-1" source="jiEWAmiSD6UKe6FcCc4l-42" target="jiEWAmiSD6UKe6FcCc4l-57" edge="1"><mxGeometry relative="1" as="geometry"><mxPoint x="430" y="200" as="targetPoint"/></mxGeometry></mxCell><mxCell id="LH_3GNmSSUHOoBuFsgbh-3" value="if l1 parent is feature" style="edgeLabel;html=1;align=center;verticalAlign=middle;resizable=0;points=[];fontSize=14;" parent="jiEWAmiSD6UKe6FcCc4l-51" vertex="1" connectable="0"><mxGeometry x="-0.3744" y="-1" relative="1" as="geometry"><mxPoint as="offset"/></mxGeometry></mxCell><mxCell id="LH_3GNmSSUHOoBuFsgbh-16" style="edgeStyle=orthogonalEdgeStyle;rounded=0;orthogonalLoop=1;jettySize=auto;html=1;fontSize=14;exitX=0.5;exitY=1;exitDx=0;exitDy=0;entryX=0.5;entryY=0;entryDx=0;entryDy=0;" parent="jiEWAmiSD6UKe6FcCc4l-1" source="jiEWAmiSD6UKe6FcCc4l-46" target="LH_3GNmSSUHOoBuFsgbh-6" edge="1"><mxGeometry relative="1" as="geometry"><Array as="points"><mxPoint x="1070" y="670"/><mxPoint x="445" y="670"/></Array></mxGeometry></mxCell><mxCell id="LH_3GNmSSUHOoBuFsgbh-17" value="if l1 parent is scenario or &lt;br&gt;scenario outline" style="edgeLabel;html=1;align=center;verticalAlign=middle;resizable=0;points=[];fontSize=14;" parent="LH_3GNmSSUHOoBuFsgbh-16" vertex="1" connectable="0"><mxGeometry x="-0.9312" y="1" relative="1" as="geometry"><mxPoint x="-91" y="31" as="offset"/></mxGeometry></mxCell><mxCell id="jiEWAmiSD6UKe6FcCc4l-42" value="Description" style="swimlane;fontStyle=4;align=center;verticalAlign=top;childLayout=stackLayout;horizontal=1;startSize=40;horizontalStack=0;resizeParent=1;resizeParentMax=0;resizeLast=0;collapsible=0;marginBottom=0;html=1;rounded=1;absoluteArcSize=1;arcSize=50;fontSize=14;" parent="jiEWAmiSD6UKe6FcCc4l-1" vertex="1"><mxGeometry x="990" y="110" width="160" height="65" as="geometry"/></mxCell><mxCell id="jiEWAmiSD6UKe6FcCc4l-46" value="Do nothing" style="fillColor=none;strokeColor=none;align=left;verticalAlign=middle;spacingLeft=5;fontSize=14;" parent="jiEWAmiSD6UKe6FcCc4l-42" vertex="1"><mxGeometry y="40" width="160" height="25" as="geometry"/></mxCell><mxCell id="RechnoxbI4qFTcfPmmfn-0" style="edgeStyle=orthogonalEdgeStyle;rounded=0;orthogonalLoop=1;jettySize=auto;html=1;entryX=0.75;entryY=0;entryDx=0;entryDy=0;" parent="jiEWAmiSD6UKe6FcCc4l-1" source="jiEWAmiSD6UKe6FcCc4l-57" target="jiEWAmiSD6UKe6FcCc4l-59" edge="1"><mxGeometry relative="1" as="geometry"/></mxCell><mxCell id="RechnoxbI4qFTcfPmmfn-1" style="edgeStyle=orthogonalEdgeStyle;rounded=0;orthogonalLoop=1;jettySize=auto;html=1;entryX=0.75;entryY=0;entryDx=0;entryDy=0;" parent="jiEWAmiSD6UKe6FcCc4l-1" source="jiEWAmiSD6UKe6FcCc4l-57" target="jiEWAmiSD6UKe6FcCc4l-69" edge="1"><mxGeometry relative="1" as="geometry"/></mxCell><mxCell id="bu53QTPztvvN-XOQHEPh-2" style="edgeStyle=orthogonalEdgeStyle;rounded=0;orthogonalLoop=1;jettySize=auto;html=1;exitX=0.25;exitY=0;exitDx=0;exitDy=0;entryX=0.25;entryY=1;entryDx=0;entryDy=0;" parent="jiEWAmiSD6UKe6FcCc4l-1" source="jiEWAmiSD6UKe6FcCc4l-57" target="jiEWAmiSD6UKe6FcCc4l-37" edge="1"><mxGeometry relative="1" as="geometry"/></mxCell><mxCell id="bu53QTPztvvN-XOQHEPh-3" value="&lt;font style=&quot;font-size: 14px&quot;&gt;if l1 parent is start&lt;/font&gt;" style="edgeLabel;html=1;align=center;verticalAlign=middle;resizable=0;points=[];" parent="bu53QTPztvvN-XOQHEPh-2" vertex="1" connectable="0"><mxGeometry x="-0.1829" y="1" relative="1" as="geometry"><mxPoint x="26" y="22" as="offset"/></mxGeometry></mxCell><mxCell id="jiEWAmiSD6UKe6FcCc4l-57" value="Tags" style="swimlane;fontStyle=4;align=center;verticalAlign=top;childLayout=stackLayout;horizontal=1;startSize=40;horizontalStack=0;resizeParent=1;resizeParentMax=0;resizeLast=0;collapsible=0;marginBottom=0;html=1;rounded=1;absoluteArcSize=1;arcSize=50;fontSize=14;" parent="jiEWAmiSD6UKe6FcCc4l-1" vertex="1"><mxGeometry x="350" y="260" width="160" height="65" as="geometry"/></mxCell><mxCell id="jiEWAmiSD6UKe6FcCc4l-58" value="Records tags literal" style="fillColor=none;strokeColor=none;align=left;verticalAlign=middle;spacingLeft=5;fontSize=14;" parent="jiEWAmiSD6UKe6FcCc4l-57" vertex="1"><mxGeometry y="40" width="160" height="25" as="geometry"/></mxCell><mxCell id="CjlGcwAJAcAaeA__eP6N-4" style="edgeStyle=orthogonalEdgeStyle;rounded=0;orthogonalLoop=1;jettySize=auto;html=1;exitX=0.75;exitY=1;exitDx=0;exitDy=0;entryX=0.5;entryY=1;entryDx=0;entryDy=0;fontSize=14;" parent="jiEWAmiSD6UKe6FcCc4l-57" source="jiEWAmiSD6UKe6FcCc4l-58" target="jiEWAmiSD6UKe6FcCc4l-58" edge="1"><mxGeometry relative="1" as="geometry"/></mxCell><mxCell id="CjlGcwAJAcAaeA__eP6N-5" value="repeatable" style="edgeLabel;html=1;align=center;verticalAlign=middle;resizable=0;points=[];fontSize=14;" parent="CjlGcwAJAcAaeA__eP6N-4" vertex="1" connectable="0"><mxGeometry x="-0.285" y="1" relative="1" as="geometry"><mxPoint y="14" as="offset"/></mxGeometry></mxCell><mxCell id="jiEWAmiSD6UKe6FcCc4l-61" value="" style="edgeStyle=orthogonalEdgeStyle;rounded=0;orthogonalLoop=1;jettySize=auto;html=1;fontSize=14;endArrow=classic;exitX=0;exitY=0.5;exitDx=0;exitDy=0;entryX=0.75;entryY=0;entryDx=0;entryDy=0;endFill=1;" parent="jiEWAmiSD6UKe6FcCc4l-1" source="jiEWAmiSD6UKe6FcCc4l-46" target="jiEWAmiSD6UKe6FcCc4l-59" edge="1"><mxGeometry relative="1" as="geometry"><mxPoint x="690" y="142.5" as="sourcePoint"/><mxPoint x="320" y="370" as="targetPoint"/></mxGeometry></mxCell><mxCell id="jiEWAmiSD6UKe6FcCc4l-66" value="if l1 parent is feature" style="edgeLabel;html=1;align=center;verticalAlign=middle;resizable=0;points=[];fontSize=14;" parent="jiEWAmiSD6UKe6FcCc4l-61" vertex="1" connectable="0"><mxGeometry x="-0.6903" y="-2" relative="1" as="geometry"><mxPoint y="2" as="offset"/></mxGeometry></mxCell><mxCell id="jiEWAmiSD6UKe6FcCc4l-64" style="edgeStyle=orthogonalEdgeStyle;rounded=0;orthogonalLoop=1;jettySize=auto;html=1;fontSize=14;entryX=0.75;entryY=1;entryDx=0;entryDy=0;exitX=0.75;exitY=1;exitDx=0;exitDy=0;" parent="jiEWAmiSD6UKe6FcCc4l-1" source="jiEWAmiSD6UKe6FcCc4l-60" target="jiEWAmiSD6UKe6FcCc4l-46" edge="1"><mxGeometry relative="1" as="geometry"><mxPoint x="810" y="300" as="targetPoint"/></mxGeometry></mxCell><mxCell id="LH_3GNmSSUHOoBuFsgbh-14" style="edgeStyle=orthogonalEdgeStyle;rounded=0;orthogonalLoop=1;jettySize=auto;html=1;fontSize=14;entryX=0.5;entryY=0;entryDx=0;entryDy=0;" parent="jiEWAmiSD6UKe6FcCc4l-1" source="jiEWAmiSD6UKe6FcCc4l-59" target="LH_3GNmSSUHOoBuFsgbh-6" edge="1"><mxGeometry relative="1" as="geometry"/></mxCell><mxCell id="jiEWAmiSD6UKe6FcCc4l-59" value="Scenario" style="swimlane;fontStyle=4;align=center;verticalAlign=top;childLayout=stackLayout;horizontal=1;startSize=40;horizontalStack=0;resizeParent=1;resizeParentMax=0;resizeLast=0;collapsible=0;marginBottom=0;html=1;rounded=1;absoluteArcSize=1;arcSize=50;fontSize=14;" parent="jiEWAmiSD6UKe6FcCc4l-1" vertex="1"><mxGeometry x="155" y="420" width="160" height="65" as="geometry"/></mxCell><mxCell id="jiEWAmiSD6UKe6FcCc4l-60" value="Record Scenario Title" style="fillColor=none;strokeColor=none;align=left;verticalAlign=middle;spacingLeft=5;fontSize=14;" parent="jiEWAmiSD6UKe6FcCc4l-59" vertex="1"><mxGeometry y="40" width="160" height="25" as="geometry"/></mxCell><mxCell id="jiEWAmiSD6UKe6FcCc4l-62" value="" style="edgeStyle=orthogonalEdgeStyle;rounded=0;orthogonalLoop=1;jettySize=auto;html=1;fontSize=14;endArrow=classic;endFill=1;" parent="jiEWAmiSD6UKe6FcCc4l-1" source="jiEWAmiSD6UKe6FcCc4l-33" target="jiEWAmiSD6UKe6FcCc4l-59" edge="1"><mxGeometry relative="1" as="geometry"><mxPoint x="235" y="95" as="sourcePoint"/><mxPoint x="210" y="420" as="targetPoint"/></mxGeometry></mxCell><mxCell id="LH_3GNmSSUHOoBuFsgbh-15" style="edgeStyle=orthogonalEdgeStyle;rounded=0;orthogonalLoop=1;jettySize=auto;html=1;fontSize=14;entryX=0.5;entryY=0;entryDx=0;entryDy=0;" parent="jiEWAmiSD6UKe6FcCc4l-1" source="jiEWAmiSD6UKe6FcCc4l-69" target="LH_3GNmSSUHOoBuFsgbh-6" edge="1"><mxGeometry relative="1" as="geometry"/></mxCell><mxCell id="jiEWAmiSD6UKe6FcCc4l-69" value="ScenarioOutline" style="swimlane;fontStyle=4;align=center;verticalAlign=top;childLayout=stackLayout;horizontal=1;startSize=40;horizontalStack=0;resizeParent=1;resizeParentMax=0;resizeLast=0;collapsible=0;marginBottom=0;html=1;rounded=1;absoluteArcSize=1;arcSize=50;fontSize=14;" parent="jiEWAmiSD6UKe6FcCc4l-1" vertex="1"><mxGeometry x="520" y="420" width="210" height="65" as="geometry"/></mxCell><mxCell id="jiEWAmiSD6UKe6FcCc4l-70" value="Record ScenarioOutlinr Title" style="fillColor=none;strokeColor=none;align=left;verticalAlign=middle;spacingLeft=5;fontSize=14;" parent="jiEWAmiSD6UKe6FcCc4l-69" vertex="1"><mxGeometry y="40" width="210" height="25" as="geometry"/></mxCell><mxCell id="LH_3GNmSSUHOoBuFsgbh-0" style="edgeStyle=orthogonalEdgeStyle;rounded=0;orthogonalLoop=1;jettySize=auto;html=1;fontSize=14;" parent="jiEWAmiSD6UKe6FcCc4l-1" source="jiEWAmiSD6UKe6FcCc4l-42" target="jiEWAmiSD6UKe6FcCc4l-42" edge="1"><mxGeometry relative="1" as="geometry"/></mxCell><mxCell id="LH_3GNmSSUHOoBuFsgbh-2" value="when multi-line" style="edgeLabel;html=1;align=center;verticalAlign=middle;resizable=0;points=[];fontSize=14;" parent="LH_3GNmSSUHOoBuFsgbh-0" vertex="1" connectable="0"><mxGeometry x="0.5769" y="1" relative="1" as="geometry"><mxPoint x="57" y="-11" as="offset"/></mxGeometry></mxCell><mxCell id="LH_3GNmSSUHOoBuFsgbh-22" style="edgeStyle=orthogonalEdgeStyle;rounded=0;orthogonalLoop=1;jettySize=auto;html=1;fontSize=14;endArrow=classic;endFill=1;" parent="jiEWAmiSD6UKe6FcCc4l-1" source="LH_3GNmSSUHOoBuFsgbh-6" target="LH_3GNmSSUHOoBuFsgbh-20" edge="1"><mxGeometry relative="1" as="geometry"/></mxCell><mxCell id="_eGztiFj8zq4aGp9wOEP-11" value="if l1 parent is ScenarioOutline" style="edgeLabel;html=1;align=center;verticalAlign=middle;resizable=0;points=[];fontSize=14;" parent="LH_3GNmSSUHOoBuFsgbh-22" vertex="1" connectable="0"><mxGeometry x="0.2782" y="-1" relative="1" as="geometry"><mxPoint as="offset"/></mxGeometry></mxCell><mxCell id="_eGztiFj8zq4aGp9wOEP-12" style="edgeStyle=orthogonalEdgeStyle;rounded=0;orthogonalLoop=1;jettySize=auto;html=1;entryX=0.5;entryY=1;entryDx=0;entryDy=0;fontSize=14;endArrow=classic;endFill=1;" parent="jiEWAmiSD6UKe6FcCc4l-1" source="h5Yxasz_SeAHb9JEMKfr-0" target="jiEWAmiSD6UKe6FcCc4l-60" edge="1"><mxGeometry relative="1" as="geometry"/></mxCell><mxCell id="_eGztiFj8zq4aGp9wOEP-14" style="edgeStyle=orthogonalEdgeStyle;rounded=0;orthogonalLoop=1;jettySize=auto;html=1;fontSize=14;endArrow=classic;endFill=1;entryX=0;entryY=0.5;entryDx=0;entryDy=0;" parent="jiEWAmiSD6UKe6FcCc4l-1" source="h5Yxasz_SeAHb9JEMKfr-0" target="jiEWAmiSD6UKe6FcCc4l-69" edge="1"><mxGeometry relative="1" as="geometry"/></mxCell><mxCell id="h5Yxasz_SeAHb9JEMKfr-1" style="edgeStyle=orthogonalEdgeStyle;rounded=0;orthogonalLoop=1;jettySize=auto;html=1;exitX=0.75;exitY=1;exitDx=0;exitDy=0;entryX=0.5;entryY=1;entryDx=0;entryDy=0;fontSize=14;" parent="jiEWAmiSD6UKe6FcCc4l-1" source="LH_3GNmSSUHOoBuFsgbh-10" target="h5Yxasz_SeAHb9JEMKfr-0" edge="1"><mxGeometry relative="1" as="geometry"/></mxCell><mxCell id="LH_3GNmSSUHOoBuFsgbh-6" value="Step&lt;br&gt;" style="swimlane;fontStyle=4;align=center;verticalAlign=top;childLayout=stackLayout;horizontal=1;startSize=40;horizontalStack=0;resizeParent=1;resizeParentMax=0;resizeLast=0;collapsible=0;marginBottom=0;html=1;rounded=1;absoluteArcSize=1;arcSize=50;fontSize=14;" parent="jiEWAmiSD6UKe6FcCc4l-1" vertex="1"><mxGeometry x="370" y="710" width="150" height="65" as="geometry"/></mxCell><mxCell id="LH_3GNmSSUHOoBuFsgbh-10" value="Record step literal" style="fillColor=none;strokeColor=none;align=left;verticalAlign=middle;spacingLeft=5;fontSize=14;" parent="LH_3GNmSSUHOoBuFsgbh-6" vertex="1"><mxGeometry y="40" width="150" height="25" as="geometry"/></mxCell><mxCell id="LH_3GNmSSUHOoBuFsgbh-18" style="edgeStyle=orthogonalEdgeStyle;rounded=0;orthogonalLoop=1;jettySize=auto;html=1;fontSize=14;" parent="jiEWAmiSD6UKe6FcCc4l-1" source="LH_3GNmSSUHOoBuFsgbh-6" target="LH_3GNmSSUHOoBuFsgbh-6" edge="1"><mxGeometry relative="1" as="geometry"/></mxCell><mxCell id="LH_3GNmSSUHOoBuFsgbh-19" value="repeatable" style="edgeLabel;html=1;align=center;verticalAlign=middle;resizable=0;points=[];fontSize=14;" parent="LH_3GNmSSUHOoBuFsgbh-18" vertex="1" connectable="0"><mxGeometry x="0.7202" relative="1" as="geometry"><mxPoint x="52" y="-10" as="offset"/></mxGeometry></mxCell><mxCell id="LH_3GNmSSUHOoBuFsgbh-26" value="" style="edgeStyle=orthogonalEdgeStyle;rounded=0;orthogonalLoop=1;jettySize=auto;html=1;fontSize=14;endArrow=classic;endFill=1;" parent="jiEWAmiSD6UKe6FcCc4l-1" source="LH_3GNmSSUHOoBuFsgbh-20" target="LH_3GNmSSUHOoBuFsgbh-24" edge="1"><mxGeometry relative="1" as="geometry"/></mxCell><mxCell id="LH_3GNmSSUHOoBuFsgbh-20" value="Example" style="swimlane;fontStyle=4;align=center;verticalAlign=top;childLayout=stackLayout;horizontal=1;startSize=40;horizontalStack=0;resizeParent=1;resizeParentMax=0;resizeLast=0;collapsible=0;marginBottom=0;html=1;rounded=1;absoluteArcSize=1;arcSize=50;fontSize=14;" parent="jiEWAmiSD6UKe6FcCc4l-1" vertex="1"><mxGeometry x="365" y="870" width="160" height="65" as="geometry"/></mxCell><mxCell id="LH_3GNmSSUHOoBuFsgbh-21" value="Do nothing" style="fillColor=none;strokeColor=none;align=left;verticalAlign=middle;spacingLeft=5;fontSize=14;" parent="LH_3GNmSSUHOoBuFsgbh-20" vertex="1"><mxGeometry y="40" width="160" height="25" as="geometry"/></mxCell><mxCell id="_eGztiFj8zq4aGp9wOEP-4" style="edgeStyle=orthogonalEdgeStyle;rounded=0;orthogonalLoop=1;jettySize=auto;html=1;exitX=0.5;exitY=0;exitDx=0;exitDy=0;" parent="jiEWAmiSD6UKe6FcCc4l-1" source="LH_3GNmSSUHOoBuFsgbh-24" target="h5Yxasz_SeAHb9JEMKfr-0" edge="1"><mxGeometry relative="1" as="geometry"><mxPoint x="790" y="436" as="targetPoint"/></mxGeometry></mxCell><mxCell id="LH_3GNmSSUHOoBuFsgbh-24" value="Example contents&lt;br&gt;(include both title and values)" style="swimlane;fontStyle=4;align=center;verticalAlign=top;childLayout=stackLayout;horizontal=1;startSize=40;horizontalStack=0;resizeParent=1;resizeParentMax=0;resizeLast=0;collapsible=0;marginBottom=0;html=1;rounded=1;absoluteArcSize=1;arcSize=50;fontSize=14;" parent="jiEWAmiSD6UKe6FcCc4l-1" vertex="1"><mxGeometry x="670" y="870" width="215" height="65" as="geometry"/></mxCell><mxCell id="LH_3GNmSSUHOoBuFsgbh-25" value="Record example literal" style="fillColor=none;strokeColor=none;align=left;verticalAlign=middle;spacingLeft=5;fontSize=14;" parent="LH_3GNmSSUHOoBuFsgbh-24" vertex="1"><mxGeometry y="40" width="215" height="25" as="geometry"/></mxCell><mxCell id="LH_3GNmSSUHOoBuFsgbh-28" value="This state machine diagram is based on per-line basis, and line doesn't include empty line and comments began with #&lt;br&gt;&lt;br&gt;Condition of state switching is omited as the state title is already self-explaining&amp;nbsp;" style="text;html=1;strokeColor=none;fillColor=none;align=center;verticalAlign=middle;whiteSpace=wrap;rounded=0;fontSize=14;" parent="jiEWAmiSD6UKe6FcCc4l-1" vertex="1"><mxGeometry x="1320" y="25" width="190" height="130" as="geometry"/></mxCell><mxCell id="_eGztiFj8zq4aGp9wOEP-0" style="edgeStyle=orthogonalEdgeStyle;rounded=0;orthogonalLoop=1;jettySize=auto;html=1;fontSize=14;" parent="jiEWAmiSD6UKe6FcCc4l-1" source="LH_3GNmSSUHOoBuFsgbh-24" target="LH_3GNmSSUHOoBuFsgbh-24" edge="1"><mxGeometry relative="1" as="geometry"><mxPoint x="800" y="830" as="sourcePoint"/><mxPoint x="860" y="850" as="targetPoint"/></mxGeometry></mxCell><mxCell id="_eGztiFj8zq4aGp9wOEP-1" value="repeatable" style="edgeLabel;html=1;align=center;verticalAlign=middle;resizable=0;points=[];fontSize=14;" parent="_eGztiFj8zq4aGp9wOEP-0" vertex="1" connectable="0"><mxGeometry x="0.7202" relative="1" as="geometry"><mxPoint x="52" y="-10" as="offset"/></mxGeometry></mxCell><mxCell id="_eGztiFj8zq4aGp9wOEP-8" value="" style="ellipse;html=1;shape=endState;fillColor=#000000;strokeColor=#000000;" parent="jiEWAmiSD6UKe6FcCc4l-1" vertex="1"><mxGeometry x="1180" y="605" width="30" height="30" as="geometry"/></mxCell><mxCell id="_eGztiFj8zq4aGp9wOEP-13" style="edgeStyle=orthogonalEdgeStyle;rounded=0;orthogonalLoop=1;jettySize=auto;html=1;entryX=0.25;entryY=1;entryDx=0;entryDy=0;fontSize=14;endArrow=classic;endFill=1;" parent="jiEWAmiSD6UKe6FcCc4l-1" source="h5Yxasz_SeAHb9JEMKfr-0" target="jiEWAmiSD6UKe6FcCc4l-58" edge="1"><mxGeometry relative="1" as="geometry"/></mxCell><mxCell id="h5Yxasz_SeAHb9JEMKfr-5" style="edgeStyle=orthogonalEdgeStyle;rounded=0;orthogonalLoop=1;jettySize=auto;html=1;fontSize=14;" parent="jiEWAmiSD6UKe6FcCc4l-1" source="h5Yxasz_SeAHb9JEMKfr-0" target="_eGztiFj8zq4aGp9wOEP-8" edge="1"><mxGeometry relative="1" as="geometry"/></mxCell><mxCell id="h5Yxasz_SeAHb9JEMKfr-0" value="" style="rhombus;fontSize=14;" parent="jiEWAmiSD6UKe6FcCc4l-1" vertex="1"><mxGeometry x="756.25" y="540" width="42.5" height="40" as="geometry"/></mxCell><mxCell id="h5Yxasz_SeAHb9JEMKfr-2" value="&lt;span style=&quot;font-family: helvetica; font-size: 14px; font-style: normal; font-weight: 400; letter-spacing: normal; text-align: center; text-indent: 0px; text-transform: none; word-spacing: 0px; display: inline; float: none;&quot;&gt;done one scenario or&lt;/span&gt;&lt;br style=&quot;padding: 0px; margin: 0px; font-family: helvetica; font-size: 14px; font-style: normal; font-weight: 400; letter-spacing: normal; text-align: center; text-indent: 0px; text-transform: none; word-spacing: 0px;&quot;&gt;&lt;span style=&quot;font-family: helvetica; font-size: 14px; font-style: normal; font-weight: 400; letter-spacing: normal; text-align: center; text-indent: 0px; text-transform: none; word-spacing: 0px; display: inline; float: none;&quot;&gt;scenario outline, build the detail object&lt;/span&gt;" style="text;whiteSpace=wrap;html=1;fontSize=14;" parent="jiEWAmiSD6UKe6FcCc4l-1" vertex="1"><mxGeometry x="790" y="560" width="160" height="60" as="geometry"/></mxCell></root></mxGraphModel></diagram></mxfile>